<svg width="900" height="384" viewBox="0 0 900 384" xmlns="http://www.w3.org/2000/svg">
  <defs>
    <linearGradient id="calendar-gradient" x1="0%" y1="0%" x2="100%" y2="100%">
      <stop offset="0%" style="stop-color:#0969da;stop-opacity:1" />
      <stop offset="100%" style="stop-color:#58a6ff;stop-opacity:1" />
    </linearGradient>
    <clipPath id="calendar-rounded">
      <rect x="0" y="0" width="900" height="384" rx="8" ry="8" />
    </clipPath>
  </defs>
  <style>
    .title {
      font-family: 'Segoe UI', Ubuntu, 'Helvetica Neue', sans-serif;
      font-size: 22px;
      font-weight: 700;
      fill: #0969da;
    }
    .subtitle {
      font-family: 'Segoe UI', Ubuntu, 'Helvetica Neue', sans-serif;
      font-size: 12px;
      font-weight: 500;
      fill: #57606a;
    }
    .day-label {
      font-family: 'Segoe UI', Ubuntu, 'Helvetica Neue', sans-serif;
      font-size: 11px;
      font-weight: 600;
      fill: #24292f;
    }
    .hour-label {
      font-family: 'Segoe UI', Ubuntu, 'Helvetica Neue', sans-serif;
      font-size: 10px;
      fill: #57606a;
      text-anchor: end;
      dominant-baseline: central;
    }
    .grid-line {
      stroke: #d0d7de;
      stroke-width: 1;
      opacity: 0.55;
    }
    .legend-label {
      font-family: 'Segoe UI', Ubuntu, 'Helvetica Neue', sans-serif;
      font-size: 11px;
      fill: #24292f;
      dominant-baseline: middle;
    }
  </style>
  <rect clip-path="url(#calendar-rounded)" width="100%" height="100%" fill="#FFFFFF" stroke="#d0d7de" stroke-width="1" />
  <rect x="0" y="378" width="900" height="6" fill="url(#calendar-gradient)" clip-path="url(#calendar-rounded)" />
  <text x="24" y="34" class="title">Weekly Commit Calendar</text>
  <text x="24" y="54" class="subtitle">Week: 2026-02-09 to 2026-02-15 | Timezone: America/Sao_Paulo</text>
  <text x="160.5" y="80" text-anchor="middle" class="day-label">Mon</text><text x="261.5" y="80" text-anchor="middle" class="day-label">Tue</text><text x="362.5" y="80" text-anchor="middle" class="day-label">Wed</text><text x="463.5" y="80" text-anchor="middle" class="day-label">Thu</text><text x="564.5" y="80" text-anchor="middle" class="day-label">Fri</text><text x="665.5" y="80" text-anchor="middle" class="day-label">Sat</text><text x="766.5" y="80" text-anchor="middle" class="day-label">Sun</text>
  <text x="56" y="94" class="hour-label">00:00</text><text x="56" y="134" class="hour-label">04:00</text><text x="56" y="174" class="hour-label">08:00</text><text x="56" y="214" class="hour-label">12:00</text><text x="56" y="254" class="hour-label">16:00</text><text x="56" y="294" class="hour-label">20:00</text><text x="56" y="334" class="hour-label">23:59</text>
  <line x1="110" y1="84" x2="110" y2="324" class="grid-line" /><line x1="211" y1="84" x2="211" y2="324" class="grid-line" /><line x1="312" y1="84" x2="312" y2="324" class="grid-line" /><line x1="413" y1="84" x2="413" y2="324" class="grid-line" /><line x1="514" y1="84" x2="514" y2="324" class="grid-line" /><line x1="615" y1="84" x2="615" y2="324" class="grid-line" /><line x1="716" y1="84" x2="716" y2="324" class="grid-line" /><line x1="817" y1="84" x2="817" y2="324" class="grid-line" /><line x1="110" y1="84" x2="817" y2="84" class="grid-line" /><line x1="110" y1="94" x2="817" y2="94" class="grid-line" /><line x1="110" y1="104" x2="817" y2="104" class="grid-line" /><line x1="110" y1="114" x2="817" y2="114" class="grid-line" /><line x1="110" y1="124" x2="817" y2="124" class="grid-line" /><line x1="110" y1="134" x2="817" y2="134" class="grid-line" /><line x1="110" y1="144" x2="817" y2="144" class="grid-line" /><line x1="110" y1="154" x2="817" y2="154" class="grid-line" /><line x1="110" y1="164" x2="817" y2="164" class="grid-line" /><line x1="110" y1="174" x2="817" y2="174" class="grid-line" /><line x1="110" y1="184" x2="817" y2="184" class="grid-line" /><line x1="110" y1="194" x2="817" y2="194" class="grid-line" /><line x1="110" y1="204" x2="817" y2="204" class="grid-line" /><line x1="110" y1="214" x2="817" y2="214" class="grid-line" /><line x1="110" y1="224" x2="817" y2="224" class="grid-line" /><line x1="110" y1="234" x2="817" y2="234" class="grid-line" /><line x1="110" y1="244" x2="817" y2="244" class="grid-line" /><line x1="110" y1="254" x2="817" y2="254" class="grid-line" /><line x1="110" y1="264" x2="817" y2="264" class="grid-line" /><line x1="110" y1="274" x2="817" y2="274" class="grid-line" /><line x1="110" y1="284" x2="817" y2="284" class="grid-line" /><line x1="110" y1="294" x2="817" y2="294" class="grid-line" /><line x1="110" y1="304" x2="817" y2="304" class="grid-line" /><line x1="110" y1="314" x2="817" y2="314" class="grid-line" /><line x1="110" y1="324" x2="817" y2="324" class="grid-line" />
  <g><rect x="112.0" y="124.2" width="97" height="8" rx="1.5" ry="1.5" fill="#0da572" opacity="{{ calendar_slot_opacity }}" /><title>leonardokr/leo-git-statistics | 8be8ee5 | 2026-02-09 04:01</title></g><g><rect x="112.0" y="124.5" width="97" height="8" rx="1.5" ry="1.5" fill="#0da572" opacity="{{ calendar_slot_opacity }}" /><title>leonardokr/leo-git-statistics | 620a828 | 2026-02-09 04:03</title></g><g><rect x="112.0" y="126.2" width="97" height="8" rx="1.5" ry="1.5" fill="#0da572" opacity="{{ calendar_slot_opacity }}" /><title>leonardokr/leo-git-statistics | ce5416b | 2026-02-09 04:13</title></g><g><rect x="112.0" y="126.8" width="97" height="8" rx="1.5" ry="1.5" fill="#0da572" opacity="{{ calendar_slot_opacity }}" /><title>leonardokr/leo-git-statistics | 6a5cde2 | 2026-02-09 04:17</title></g><g><rect x="112.0" y="130.3" width="97" height="8" rx="1.5" ry="1.5" fill="#0da572" opacity="{{ calendar_slot_opacity }}" /><title>leonardokr/leo-git-statistics | 4688708 | 2026-02-09 04:38</title></g><g><rect x="112.0" y="133.5" width="97" height="8" rx="1.5" ry="1.5" fill="#0da572" opacity="{{ calendar_slot_opacity }}" /><title>leonardokr/leo-git-statistics | 36f51d1 | 2026-02-09 04:57</title></g><g><rect x="112.0" y="133.8" width="97" height="8" rx="1.5" ry="1.5" fill="#0da572" opacity="{{ calendar_slot_opacity }}" /><title>leonardokr/leo-git-statistics | 18afc41 | 2026-02-09 04:59</title></g><g><rect x="112.0" y="134.0" width="97" height="8" rx="1.5" ry="1.5" fill="#0da572" opacity="{{ calendar_slot_opacity }}" /><title>leonardokr/leo-git-statistics | 6a3808c | 2026-02-09 05:00</title></g><g><rect x="112.0" y="136.0" width="97" height="8" rx="1.5" ry="1.5" fill="#0da572" opacity="{{ calendar_slot_opacity }}" /><title>leonardokr/leo-git-statistics | fb704fc | 2026-02-09 05:12</title></g><g><rect x="112.0" y="139.0" width="97" height="8" rx="1.5" ry="1.5" fill="#0da572" opacity="{{ calendar_slot_opacity }}" /><title>leonardokr/leo-git-statistics | 471b42d | 2026-02-09 05:30</title></g><g><rect x="112.0" y="142.7" width="97" height="8" rx="1.5" ry="1.5" fill="#0da572" opacity="{{ calendar_slot_opacity }}" /><title>leonardokr/leo-git-statistics | d0a974e | 2026-02-09 05:52</title></g><g><rect x="112.0" y="147.8" width="97" height="8" rx="1.5" ry="1.5" fill="#0da572" opacity="{{ calendar_slot_opacity }}" /><title>leonardokr/leo-git-statistics | f3188ab | 2026-02-09 06:23</title></g><g><rect x="112.0" y="151.0" width="97" height="8" rx="1.5" ry="1.5" fill="#0da572" opacity="{{ calendar_slot_opacity }}" /><title>leonardokr/leo-git-statistics | b695916 | 2026-02-09 06:42</title></g><g><rect x="112.0" y="152.7" width="97" height="8" rx="1.5" ry="1.5" fill="#0da572" opacity="{{ calendar_slot_opacity }}" /><title>leonardokr/leo-git-statistics | b22699f | 2026-02-09 06:52</title></g><g><rect x="112.0" y="153.3" width="97" height="8" rx="1.5" ry="1.5" fill="#0da572" opacity="{{ calendar_slot_opacity }}" /><title>leonardokr/leo-git-statistics | 674be46 | 2026-02-09 06:56</title></g><g><rect x="112.0" y="181.5" width="97" height="8" rx="1.5" ry="1.5" fill="#1c94c8" opacity="{{ calendar_slot_opacity }}" /><title>leonardokr/leonardokr | Card profile-3d-contrib from yoshi389111/github-profile-3d-contrib added | 2026-02-09 09:45</title></g><g><rect x="112.0" y="182.2" width="97" height="8" rx="1.5" ry="1.5" fill="#1c94c8" opacity="{{ calendar_slot_opacity }}" /><title>leonardokr/leonardokr | Removed unused resources | 2026-02-09 09:49</title></g><g><rect x="112.0" y="182.7" width="97" height="8" rx="1.5" ry="1.5" fill="#1c94c8" opacity="{{ calendar_slot_opacity }}" /><title>leonardokr/leonardokr | Adjust workflow cron | 2026-02-09 09:52</title></g><g><rect x="112.0" y="182.7" width="97" height="8" rx="1.5" ry="1.5" fill="#1c94c8" opacity="{{ calendar_slot_opacity }}" /><title>leonardokr/leonardokr | Removed unused folder | 2026-02-09 09:52</title></g><g><rect x="112.0" y="183.3" width="97" height="8" rx="1.5" ry="1.5" fill="#1c94c8" opacity="{{ calendar_slot_opacity }}" /><title>leonardokr/leonardokr | Move 3D contribution output into profile directory | 2026-02-09 09:56</title></g><g><rect x="112.0" y="183.7" width="97" height="8" rx="1.5" ry="1.5" fill="#1c94c8" opacity="{{ calendar_slot_opacity }}" /><title>leonardokr/leonardokr | Added a .gitignore file | 2026-02-09 09:58</title></g><g><rect x="112.0" y="188.7" width="97" height="8" rx="1.5" ry="1.5" fill="#1c94c8" opacity="{{ calendar_slot_opacity }}" /><title>leonardokr/leonardokr | Update README.md | 2026-02-09 10:28</title></g><g><rect x="112.0" y="267.2" width="97" height="8" rx="1.5" ry="1.5" fill="#0da572" opacity="{{ calendar_slot_opacity }}" /><title>leonardokr/leo-git-statistics | 059d558 | 2026-02-09 18:19</title></g><g><rect x="112.0" y="270.0" width="97" height="8" rx="1.5" ry="1.5" fill="#0da572" opacity="{{ calendar_slot_opacity }}" /><title>leonardokr/leo-git-statistics | aef4b84 | 2026-02-09 18:36</title></g><g><rect x="112.0" y="272.5" width="97" height="8" rx="1.5" ry="1.5" fill="#0da572" opacity="{{ calendar_slot_opacity }}" /><title>leonardokr/leo-git-statistics | 28aaf19 | 2026-02-09 18:51</title></g><g><rect x="112.0" y="273.3" width="97" height="8" rx="1.5" ry="1.5" fill="#0da572" opacity="{{ calendar_slot_opacity }}" /><title>leonardokr/leo-git-statistics | 6f11556 | 2026-02-09 18:56</title></g><g><rect x="112.0" y="279.2" width="97" height="8" rx="1.5" ry="1.5" fill="#0da572" opacity="{{ calendar_slot_opacity }}" /><title>leonardokr/leo-git-statistics | 122d600 | 2026-02-09 19:31</title></g><g><rect x="112.0" y="279.7" width="97" height="8" rx="1.5" ry="1.5" fill="#0da572" opacity="{{ calendar_slot_opacity }}" /><title>leonardokr/leo-git-statistics | 8aae5d0 | 2026-02-09 19:34</title></g><g><rect x="112.0" y="282.8" width="97" height="8" rx="1.5" ry="1.5" fill="#0da572" opacity="{{ calendar_slot_opacity }}" /><title>leonardokr/leo-git-statistics | 22eafe0 | 2026-02-09 19:53</title></g><g><rect x="112.0" y="282.8" width="97" height="8" rx="1.5" ry="1.5" fill="#0da572" opacity="{{ calendar_slot_opacity }}" /><title>leonardokr/leo-git-statistics | 04cdd0e | 2026-02-09 19:53</title></g><g><rect x="112.0" y="283.0" width="97" height="8" rx="1.5" ry="1.5" fill="#0da572" opacity="{{ calendar_slot_opacity }}" /><title>leonardokr/leo-git-statistics | bf12858 | 2026-02-09 19:54</title></g><g><rect x="112.0" y="283.5" width="97" height="8" rx="1.5" ry="1.5" fill="#0da572" opacity="{{ calendar_slot_opacity }}" /><title>leonardokr/leo-git-statistics | e1f78ea | 2026-02-09 19:57</title></g><g><rect x="112.0" y="288.2" width="97" height="8" rx="1.5" ry="1.5" fill="#0da572" opacity="{{ calendar_slot_opacity }}" /><title>leonardokr/leo-git-statistics | 8af90fd | 2026-02-09 20:25</title></g><g><rect x="112.0" y="289.8" width="97" height="8" rx="1.5" ry="1.5" fill="#0da572" opacity="{{ calendar_slot_opacity }}" /><title>leonardokr/leo-git-statistics | 537541a | 2026-02-09 20:35</title></g><g><rect x="112.0" y="291.2" width="97" height="8" rx="1.5" ry="1.5" fill="#0da572" opacity="{{ calendar_slot_opacity }}" /><title>leonardokr/leo-git-statistics | 19b208b | 2026-02-09 20:43</title></g><g><rect x="112.0" y="292.5" width="97" height="8" rx="1.5" ry="1.5" fill="#0da572" opacity="{{ calendar_slot_opacity }}" /><title>leonardokr/leo-git-statistics | ea5da3f | 2026-02-09 20:51</title></g><g><rect x="112.0" y="292.5" width="97" height="8" rx="1.5" ry="1.5" fill="#0da572" opacity="{{ calendar_slot_opacity }}" /><title>leonardokr/leo-git-statistics | a526937 | 2026-02-09 20:51</title></g><g><rect x="112.0" y="292.5" width="97" height="8" rx="1.5" ry="1.5" fill="#0da572" opacity="{{ calendar_slot_opacity }}" /><title>leonardokr/leo-git-statistics | 5b52c0b | 2026-02-09 20:51</title></g><g><rect x="112.0" y="292.5" width="97" height="8" rx="1.5" ry="1.5" fill="#0da572" opacity="{{ calendar_slot_opacity }}" /><title>leonardokr/leo-git-statistics | 7d8b808 | 2026-02-09 20:51</title></g><g><rect x="112.0" y="292.7" width="97" height="8" rx="1.5" ry="1.5" fill="#0da572" opacity="{{ calendar_slot_opacity }}" /><title>leonardokr/leo-git-statistics | bf92a31 | 2026-02-09 20:52</title></g><g><rect x="112.0" y="292.7" width="97" height="8" rx="1.5" ry="1.5" fill="#0da572" opacity="{{ calendar_slot_opacity }}" /><title>leonardokr/leo-git-statistics | 5f97cba | 2026-02-09 20:52</title></g><g><rect x="112.0" y="292.7" width="97" height="8" rx="1.5" ry="1.5" fill="#0da572" opacity="{{ calendar_slot_opacity }}" /><title>leonardokr/leo-git-statistics | 44ffc58 | 2026-02-09 20:52</title></g><g><rect x="112.0" y="292.8" width="97" height="8" rx="1.5" ry="1.5" fill="#0da572" opacity="{{ calendar_slot_opacity }}" /><title>leonardokr/leo-git-statistics | 7e2ae98 | 2026-02-09 20:53</title></g><g><rect x="112.0" y="292.8" width="97" height="8" rx="1.5" ry="1.5" fill="#0da572" opacity="{{ calendar_slot_opacity }}" /><title>leonardokr/leo-git-statistics | b1830a8 | 2026-02-09 20:53</title></g><g><rect x="112.0" y="292.8" width="97" height="8" rx="1.5" ry="1.5" fill="#0da572" opacity="{{ calendar_slot_opacity }}" /><title>leonardokr/leo-git-statistics | 6315ab9 | 2026-02-09 20:53</title></g><g><rect x="112.0" y="292.8" width="97" height="8" rx="1.5" ry="1.5" fill="#0da572" opacity="{{ calendar_slot_opacity }}" /><title>leonardokr/leo-git-statistics | bf87d17 | 2026-02-09 20:53</title></g><g><rect x="112.0" y="293.0" width="97" height="8" rx="1.5" ry="1.5" fill="#0da572" opacity="{{ calendar_slot_opacity }}" /><title>leonardokr/leo-git-statistics | 8aa97c0 | 2026-02-09 20:54</title></g><g><rect x="112.0" y="293.2" width="97" height="8" rx="1.5" ry="1.5" fill="#0da572" opacity="{{ calendar_slot_opacity }}" /><title>leonardokr/leo-git-statistics | b29cffc | 2026-02-09 20:55</title></g><g><rect x="112.0" y="293.7" width="97" height="8" rx="1.5" ry="1.5" fill="#0da572" opacity="{{ calendar_slot_opacity }}" /><title>leonardokr/leo-git-statistics | aea2fb4 | 2026-02-09 20:58</title></g><g><rect x="112.0" y="298.2" width="97" height="8" rx="1.5" ry="1.5" fill="#0da572" opacity="{{ calendar_slot_opacity }}" /><title>leonardokr/leo-git-statistics | 6ec6ec9 | 2026-02-09 21:25</title></g><g><rect x="112.0" y="298.2" width="97" height="8" rx="1.5" ry="1.5" fill="#0da572" opacity="{{ calendar_slot_opacity }}" /><title>leonardokr/leo-git-statistics | 12d7552 | 2026-02-09 21:25</title></g><g><rect x="112.0" y="298.3" width="97" height="8" rx="1.5" ry="1.5" fill="#0da572" opacity="{{ calendar_slot_opacity }}" /><title>leonardokr/leo-git-statistics | 495801e | 2026-02-09 21:26</title></g><g><rect x="112.0" y="298.3" width="97" height="8" rx="1.5" ry="1.5" fill="#0da572" opacity="{{ calendar_slot_opacity }}" /><title>leonardokr/leo-git-statistics | 3e162c3 | 2026-02-09 21:26</title></g><g><rect x="112.0" y="298.3" width="97" height="8" rx="1.5" ry="1.5" fill="#0da572" opacity="{{ calendar_slot_opacity }}" /><title>leonardokr/leo-git-statistics | 9a9f835 | 2026-02-09 21:26</title></g><g><rect x="112.0" y="298.3" width="97" height="8" rx="1.5" ry="1.5" fill="#0da572" opacity="{{ calendar_slot_opacity }}" /><title>leonardokr/leo-git-statistics | c2a440f | 2026-02-09 21:26</title></g><g><rect x="112.0" y="298.3" width="97" height="8" rx="1.5" ry="1.5" fill="#0da572" opacity="{{ calendar_slot_opacity }}" /><title>leonardokr/leo-git-statistics | 7f0616e | 2026-02-09 21:26</title></g><g><rect x="112.0" y="298.5" width="97" height="8" rx="1.5" ry="1.5" fill="#0da572" opacity="{{ calendar_slot_opacity }}" /><title>leonardokr/leo-git-statistics | 2d4c669 | 2026-02-09 21:27</title></g><g><rect x="112.0" y="298.5" width="97" height="8" rx="1.5" ry="1.5" fill="#0da572" opacity="{{ calendar_slot_opacity }}" /><title>leonardokr/leo-git-statistics | 2ee76d3 | 2026-02-09 21:27</title></g><g><rect x="112.0" y="298.5" width="97" height="8" rx="1.5" ry="1.5" fill="#0da572" opacity="{{ calendar_slot_opacity }}" /><title>leonardokr/leo-git-statistics | 6c6ea50 | 2026-02-09 21:27</title></g><g><rect x="112.0" y="298.7" width="97" height="8" rx="1.5" ry="1.5" fill="#0da572" opacity="{{ calendar_slot_opacity }}" /><title>leonardokr/leo-git-statistics | e26e42b | 2026-02-09 21:28</title></g><g><rect x="112.0" y="298.8" width="97" height="8" rx="1.5" ry="1.5" fill="#0da572" opacity="{{ calendar_slot_opacity }}" /><title>leonardokr/leo-git-statistics | 9036f25 | 2026-02-09 21:29</title></g><g><rect x="112.0" y="300.5" width="97" height="8" rx="1.5" ry="1.5" fill="#0da572" opacity="{{ calendar_slot_opacity }}" /><title>leonardokr/leo-git-statistics | b730393 | 2026-02-09 21:39</title></g><g><rect x="112.0" y="300.5" width="97" height="8" rx="1.5" ry="1.5" fill="#0da572" opacity="{{ calendar_slot_opacity }}" /><title>leonardokr/leo-git-statistics | 22758b7 | 2026-02-09 21:39</title></g><g><rect x="213.0" y="128.7" width="97" height="8" rx="1.5" ry="1.5" fill="#0da572" opacity="{{ calendar_slot_opacity }}" /><title>leonardokr/leo-git-statistics | 9dd9dc3 | 2026-02-10 04:28</title></g><g><rect x="213.0" y="130.0" width="97" height="8" rx="1.5" ry="1.5" fill="#0da572" opacity="{{ calendar_slot_opacity }}" /><title>leonardokr/leo-git-statistics | 991dfd0 | 2026-02-10 04:36</title></g><g><rect x="213.0" y="131.2" width="97" height="8" rx="1.5" ry="1.5" fill="#0da572" opacity="{{ calendar_slot_opacity }}" /><title>leonardokr/leo-git-statistics | 55d2941 | 2026-02-10 04:43</title></g><g><rect x="213.0" y="137.5" width="97" height="8" rx="1.5" ry="1.5" fill="#0da572" opacity="{{ calendar_slot_opacity }}" /><title>leonardokr/leo-git-statistics | eb4eb06 | 2026-02-10 05:21</title></g><g><rect x="213.0" y="139.0" width="97" height="8" rx="1.5" ry="1.5" fill="#0da572" opacity="{{ calendar_slot_opacity }}" /><title>leonardokr/leo-git-statistics | 1ca9550 | 2026-02-10 05:30</title></g><g><rect x="213.0" y="139.2" width="97" height="8" rx="1.5" ry="1.5" fill="#0da572" opacity="{{ calendar_slot_opacity }}" /><title>leonardokr/leo-git-statistics | 9819ccc | 2026-02-10 05:31</title></g><g><rect x="213.0" y="140.0" width="97" height="8" rx="1.5" ry="1.5" fill="#0da572" opacity="{{ calendar_slot_opacity }}" /><title>leonardokr/leo-git-statistics | 730503e | 2026-02-10 05:36</title></g><g><rect x="213.0" y="140.8" width="97" height="8" rx="1.5" ry="1.5" fill="#0da572" opacity="{{ calendar_slot_opacity }}" /><title>leonardokr/leo-git-statistics | 59495cf | 2026-02-10 05:41</title></g><g><rect x="213.0" y="147.7" width="97" height="8" rx="1.5" ry="1.5" fill="#0da572" opacity="{{ calendar_slot_opacity }}" /><title>leonardokr/leo-git-statistics | f4ab24e | 2026-02-10 06:22</title></g><g><rect x="213.0" y="151.7" width="97" height="8" rx="1.5" ry="1.5" fill="#0da572" opacity="{{ calendar_slot_opacity }}" /><title>leonardokr/leo-git-statistics | 4bd740c | 2026-02-10 06:46</title></g><g><rect x="213.0" y="152.0" width="97" height="8" rx="1.5" ry="1.5" fill="#0da572" opacity="{{ calendar_slot_opacity }}" /><title>leonardokr/leo-git-statistics | 52636e2 | 2026-02-10 06:48</title></g><g><rect x="213.0" y="152.5" width="97" height="8" rx="1.5" ry="1.5" fill="#0da572" opacity="{{ calendar_slot_opacity }}" /><title>leonardokr/leo-git-statistics | 7dd1ca2 | 2026-02-10 06:51</title></g><g><rect x="213.0" y="152.7" width="97" height="8" rx="1.5" ry="1.5" fill="#0da572" opacity="{{ calendar_slot_opacity }}" /><title>leonardokr/leo-git-statistics | 223978f | 2026-02-10 06:52</title></g><g><rect x="213.0" y="153.0" width="97" height="8" rx="1.5" ry="1.5" fill="#0da572" opacity="{{ calendar_slot_opacity }}" /><title>leonardokr/leo-git-statistics | 421d470 | 2026-02-10 06:54</title></g><g><rect x="213.0" y="153.7" width="97" height="8" rx="1.5" ry="1.5" fill="#0da572" opacity="{{ calendar_slot_opacity }}" /><title>leonardokr/leo-git-statistics | 8d1a32a | 2026-02-10 06:58</title></g><g><rect x="213.0" y="255.8" width="97" height="8" rx="1.5" ry="1.5" fill="#0da572" opacity="{{ calendar_slot_opacity }}" /><title>leonardokr/leo-git-statistics | 41ade09 | 2026-02-10 17:11</title></g><g><rect x="213.0" y="258.0" width="97" height="8" rx="1.5" ry="1.5" fill="#0da572" opacity="{{ calendar_slot_opacity }}" /><title>leonardokr/leo-git-statistics | 805da33 | 2026-02-10 17:24</title></g><g><rect x="213.0" y="258.0" width="97" height="8" rx="1.5" ry="1.5" fill="#0da572" opacity="{{ calendar_slot_opacity }}" /><title>leonardokr/leo-git-statistics | 82e5df7 | 2026-02-10 17:24</title></g><g><rect x="213.0" y="260.8" width="97" height="8" rx="1.5" ry="1.5" fill="#0da572" opacity="{{ calendar_slot_opacity }}" /><title>leonardokr/leo-git-statistics | ef8b13b | 2026-02-10 17:41</title></g><g><rect x="213.0" y="264.5" width="97" height="8" rx="1.5" ry="1.5" fill="#0da572" opacity="{{ calendar_slot_opacity }}" /><title>leonardokr/leo-git-statistics | d8b370f | 2026-02-10 18:03</title></g><g><rect x="213.0" y="268.3" width="97" height="8" rx="1.5" ry="1.5" fill="#0da572" opacity="{{ calendar_slot_opacity }}" /><title>leonardokr/leo-git-statistics | fd68e33 | 2026-02-10 18:26</title></g><g><rect x="213.0" y="268.3" width="97" height="8" rx="1.5" ry="1.5" fill="#0da572" opacity="{{ calendar_slot_opacity }}" /><title>leonardokr/leo-git-statistics | c99ad64 | 2026-02-10 18:26</title></g><g><rect x="213.0" y="268.5" width="97" height="8" rx="1.5" ry="1.5" fill="#0da572" opacity="{{ calendar_slot_opacity }}" /><title>leonardokr/leo-git-statistics | 38b5d5d | 2026-02-10 18:27</title></g><g><rect x="213.0" y="270.7" width="97" height="8" rx="1.5" ry="1.5" fill="#0da572" opacity="{{ calendar_slot_opacity }}" /><title>leonardokr/leo-git-statistics | 4f464c8 | 2026-02-10 18:40</title></g><g><rect x="213.0" y="278.0" width="97" height="8" rx="1.5" ry="1.5" fill="#0da572" opacity="{{ calendar_slot_opacity }}" /><title>leonardokr/leo-git-statistics | bec3441 | 2026-02-10 19:24</title></g><g><rect x="213.0" y="278.5" width="97" height="8" rx="1.5" ry="1.5" fill="#0da572" opacity="{{ calendar_slot_opacity }}" /><title>leonardokr/leo-git-statistics | 6f8741c | 2026-02-10 19:27</title></g><g><rect x="213.0" y="279.7" width="97" height="8" rx="1.5" ry="1.5" fill="#0da572" opacity="{{ calendar_slot_opacity }}" /><title>leonardokr/leo-git-statistics | ce55d07 | 2026-02-10 19:34</title></g><g><rect x="213.0" y="284.2" width="97" height="8" rx="1.5" ry="1.5" fill="#0da572" opacity="{{ calendar_slot_opacity }}" /><title>leonardokr/leo-git-statistics | 9740be1 | 2026-02-10 20:01</title></g><g><rect x="213.0" y="287.7" width="97" height="8" rx="1.5" ry="1.5" fill="#0da572" opacity="{{ calendar_slot_opacity }}" /><title>leonardokr/leo-git-statistics | bb56475 | 2026-02-10 20:22</title></g><g><rect x="213.0" y="289.7" width="97" height="8" rx="1.5" ry="1.5" fill="#0da572" opacity="{{ calendar_slot_opacity }}" /><title>leonardokr/leo-git-statistics | fdf2c95 | 2026-02-10 20:34</title></g><g><rect x="213.0" y="291.0" width="97" height="8" rx="1.5" ry="1.5" fill="#0da572" opacity="{{ calendar_slot_opacity }}" /><title>leonardokr/leo-git-statistics | 325102e | 2026-02-10 20:42</title></g><g><rect x="213.0" y="291.0" width="97" height="8" rx="1.5" ry="1.5" fill="#0da572" opacity="{{ calendar_slot_opacity }}" /><title>leonardokr/leo-git-statistics | a05db8c | 2026-02-10 20:42</title></g><g><rect x="213.0" y="291.2" width="97" height="8" rx="1.5" ry="1.5" fill="#0da572" opacity="{{ calendar_slot_opacity }}" /><title>leonardokr/leo-git-statistics | d5069e9 | 2026-02-10 20:43</title></g><g><rect x="213.0" y="306.0" width="97" height="8" rx="1.5" ry="1.5" fill="#0da572" opacity="{{ calendar_slot_opacity }}" /><title>leonardokr/leo-git-statistics | 5712b8f | 2026-02-10 22:12</title></g><g><rect x="213.0" y="306.5" width="97" height="8" rx="1.5" ry="1.5" fill="#0da572" opacity="{{ calendar_slot_opacity }}" /><title>leonardokr/leo-git-statistics | 067a31c | 2026-02-10 22:15</title></g><g><rect x="213.0" y="306.7" width="97" height="8" rx="1.5" ry="1.5" fill="#0da572" opacity="{{ calendar_slot_opacity }}" /><title>leonardokr/leo-git-statistics | 8b958ce | 2026-02-10 22:16</title></g><g><rect x="213.0" y="306.8" width="97" height="8" rx="1.5" ry="1.5" fill="#0da572" opacity="{{ calendar_slot_opacity }}" /><title>leonardokr/leo-git-statistics | 38cceec | 2026-02-10 22:17</title></g><g><rect x="213.0" y="307.0" width="97" height="8" rx="1.5" ry="1.5" fill="#0da572" opacity="{{ calendar_slot_opacity }}" /><title>leonardokr/leo-git-statistics | c544ddc | 2026-02-10 22:18</title></g><g><rect x="213.0" y="309.0" width="97" height="8" rx="1.5" ry="1.5" fill="#0da572" opacity="{{ calendar_slot_opacity }}" /><title>leonardokr/leo-git-statistics | 6d57985 | 2026-02-10 22:30</title></g><g><rect x="213.0" y="311.2" width="97" height="8" rx="1.5" ry="1.5" fill="#0da572" opacity="{{ calendar_slot_opacity }}" /><title>leonardokr/leo-git-statistics | 5342044 | 2026-02-10 22:43</title></g><g><rect x="213.0" y="311.3" width="97" height="8" rx="1.5" ry="1.5" fill="#0da572" opacity="{{ calendar_slot_opacity }}" /><title>leonardokr/leo-git-statistics | 75fefe8 | 2026-02-10 22:44</title></g><g><rect x="213.0" y="311.7" width="97" height="8" rx="1.5" ry="1.5" fill="#0da572" opacity="{{ calendar_slot_opacity }}" /><title>leonardokr/leo-git-statistics | 35ed5ff | 2026-02-10 22:46</title></g><g><rect x="213.0" y="312.3" width="97" height="8" rx="1.5" ry="1.5" fill="#0da572" opacity="{{ calendar_slot_opacity }}" /><title>leonardokr/leo-git-statistics | 8fe6883 | 2026-02-10 22:50</title></g><g><rect x="213.0" y="313.2" width="97" height="8" rx="1.5" ry="1.5" fill="#0da572" opacity="{{ calendar_slot_opacity }}" /><title>leonardokr/leo-git-statistics | 41983fe | 2026-02-10 22:55</title></g><g><rect x="314.0" y="128.2" width="97" height="8" rx="1.5" ry="1.5" fill="#0da572" opacity="{{ calendar_slot_opacity }}" /><title>leonardokr/leo-git-statistics | a73c5eb | 2026-02-11 04:25</title></g><g><rect x="314.0" y="130.2" width="97" height="8" rx="1.5" ry="1.5" fill="#0da572" opacity="{{ calendar_slot_opacity }}" /><title>leonardokr/leo-git-statistics | a0f127f | 2026-02-11 04:37</title></g><g><rect x="314.0" y="130.3" width="97" height="8" rx="1.5" ry="1.5" fill="#0da572" opacity="{{ calendar_slot_opacity }}" /><title>leonardokr/leo-git-statistics | 4a7edb9 | 2026-02-11 04:38</title></g><g><rect x="314.0" y="131.3" width="97" height="8" rx="1.5" ry="1.5" fill="#0da572" opacity="{{ calendar_slot_opacity }}" /><title>leonardokr/leo-git-statistics | f9a4412 | 2026-02-11 04:44</title></g><g><rect x="314.0" y="135.3" width="97" height="8" rx="1.5" ry="1.5" fill="#0da572" opacity="{{ calendar_slot_opacity }}" /><title>leonardokr/leo-git-statistics | 4a11ed2 | 2026-02-11 05:08</title></g><g><rect x="314.0" y="136.3" width="97" height="8" rx="1.5" ry="1.5" fill="#0da572" opacity="{{ calendar_slot_opacity }}" /><title>leonardokr/leo-git-statistics | 44e021e | 2026-02-11 05:14</title></g><g><rect x="314.0" y="138.5" width="97" height="8" rx="1.5" ry="1.5" fill="#0da572" opacity="{{ calendar_slot_opacity }}" /><title>leonardokr/leo-git-statistics | 5fe155b | 2026-02-11 05:27</title></g><g><rect x="314.0" y="140.2" width="97" height="8" rx="1.5" ry="1.5" fill="#0da572" opacity="{{ calendar_slot_opacity }}" /><title>leonardokr/leo-git-statistics | 86543ae | 2026-02-11 05:37</title></g><g><rect x="314.0" y="148.7" width="97" height="8" rx="1.5" ry="1.5" fill="#0da572" opacity="{{ calendar_slot_opacity }}" /><title>leonardokr/leo-git-statistics | aa9dff4 | 2026-02-11 06:28</title></g><g><rect x="314.0" y="149.7" width="97" height="8" rx="1.5" ry="1.5" fill="#0da572" opacity="{{ calendar_slot_opacity }}" /><title>leonardokr/leo-git-statistics | 0bc541d | 2026-02-11 06:34</title></g><g><rect x="314.0" y="150.2" width="97" height="8" rx="1.5" ry="1.5" fill="#0da572" opacity="{{ calendar_slot_opacity }}" /><title>leonardokr/leo-git-statistics | 8e25292 | 2026-02-11 06:37</title></g><g><rect x="314.0" y="151.2" width="97" height="8" rx="1.5" ry="1.5" fill="#0da572" opacity="{{ calendar_slot_opacity }}" /><title>leonardokr/leo-git-statistics | d12ad84 | 2026-02-11 06:43</title></g><g><rect x="314.0" y="153.2" width="97" height="8" rx="1.5" ry="1.5" fill="#0da572" opacity="{{ calendar_slot_opacity }}" /><title>leonardokr/leo-git-statistics | 15cf04d | 2026-02-11 06:55</title></g><g><rect x="314.0" y="264.7" width="97" height="8" rx="1.5" ry="1.5" fill="#0da572" opacity="{{ calendar_slot_opacity }}" /><title>leonardokr/leo-git-statistics | cafefac | 2026-02-11 18:04</title></g><g><rect x="314.0" y="267.5" width="97" height="8" rx="1.5" ry="1.5" fill="#0da572" opacity="{{ calendar_slot_opacity }}" /><title>leonardokr/leo-git-statistics | 592ffa2 | 2026-02-11 18:21</title></g><g><rect x="314.0" y="267.7" width="97" height="8" rx="1.5" ry="1.5" fill="#0da572" opacity="{{ calendar_slot_opacity }}" /><title>leonardokr/leo-git-statistics | f243047 | 2026-02-11 18:22</title></g><g><rect x="314.0" y="268.7" width="97" height="8" rx="1.5" ry="1.5" fill="#0da572" opacity="{{ calendar_slot_opacity }}" /><title>leonardokr/leo-git-statistics | 6be9119 | 2026-02-11 18:28</title></g><g><rect x="314.0" y="269.5" width="97" height="8" rx="1.5" ry="1.5" fill="#0da572" opacity="{{ calendar_slot_opacity }}" /><title>leonardokr/leo-git-statistics | 54d5a77 | 2026-02-11 18:33</title></g><g><rect x="314.0" y="270.3" width="97" height="8" rx="1.5" ry="1.5" fill="#0da572" opacity="{{ calendar_slot_opacity }}" /><title>leonardokr/leo-git-statistics | 949a152 | 2026-02-11 18:38</title></g><g><rect x="314.0" y="271.5" width="97" height="8" rx="1.5" ry="1.5" fill="#0da572" opacity="{{ calendar_slot_opacity }}" /><title>leonardokr/leo-git-statistics | 41fabd4 | 2026-02-11 18:45</title></g><g><rect x="314.0" y="272.3" width="97" height="8" rx="1.5" ry="1.5" fill="#0da572" opacity="{{ calendar_slot_opacity }}" /><title>leonardokr/leo-git-statistics | f8b1522 | 2026-02-11 18:50</title></g><g><rect x="314.0" y="272.7" width="97" height="8" rx="1.5" ry="1.5" fill="#0da572" opacity="{{ calendar_slot_opacity }}" /><title>leonardokr/leo-git-statistics | a78c295 | 2026-02-11 18:52</title></g><g><rect x="314.0" y="277.2" width="97" height="8" rx="1.5" ry="1.5" fill="#0da572" opacity="{{ calendar_slot_opacity }}" /><title>leonardokr/leo-git-statistics | f385a53 | 2026-02-11 19:19</title></g><g><rect x="314.0" y="278.5" width="97" height="8" rx="1.5" ry="1.5" fill="#0da572" opacity="{{ calendar_slot_opacity }}" /><title>leonardokr/leo-git-statistics | 731797a | 2026-02-11 19:27</title></g><g><rect x="314.0" y="279.3" width="97" height="8" rx="1.5" ry="1.5" fill="#0da572" opacity="{{ calendar_slot_opacity }}" /><title>leonardokr/leo-git-statistics | 1ee0488 | 2026-02-11 19:32</title></g><g><rect x="314.0" y="282.3" width="97" height="8" rx="1.5" ry="1.5" fill="#0da572" opacity="{{ calendar_slot_opacity }}" /><title>leonardokr/leo-git-statistics | 58695cf | 2026-02-11 19:50</title></g><g><rect x="314.0" y="283.7" width="97" height="8" rx="1.5" ry="1.5" fill="#0da572" opacity="{{ calendar_slot_opacity }}" /><title>leonardokr/leo-git-statistics | 793fd78 | 2026-02-11 19:58</title></g><g><rect x="314.0" y="291.2" width="97" height="8" rx="1.5" ry="1.5" fill="#0da572" opacity="{{ calendar_slot_opacity }}" /><title>leonardokr/leo-git-statistics | bd4f0df | 2026-02-11 20:43</title></g><g><rect x="314.0" y="292.2" width="97" height="8" rx="1.5" ry="1.5" fill="#0da572" opacity="{{ calendar_slot_opacity }}" /><title>leonardokr/leo-git-statistics | 88efaf9 | 2026-02-11 20:49</title></g><g><rect x="314.0" y="293.5" width="97" height="8" rx="1.5" ry="1.5" fill="#0da572" opacity="{{ calendar_slot_opacity }}" /><title>leonardokr/leo-git-statistics | 14d58b4 | 2026-02-11 20:57</title></g><g><rect x="415.0" y="209.7" width="97" height="8" rx="1.5" ry="1.5" fill="#0da572" opacity="{{ calendar_slot_opacity }}" /><title>leonardokr/leo-git-statistics | c297a0b | 2026-02-12 12:34</title></g><g><rect x="415.0" y="209.7" width="97" height="8" rx="1.5" ry="1.5" fill="#0da572" opacity="{{ calendar_slot_opacity }}" /><title>leonardokr/leo-git-statistics | d13207a | 2026-02-12 12:34</title></g><g><rect x="415.0" y="209.8" width="97" height="8" rx="1.5" ry="1.5" fill="#0da572" opacity="{{ calendar_slot_opacity }}" /><title>leonardokr/leo-git-statistics | b5b4298 | 2026-02-12 12:35</title></g><g><rect x="415.0" y="210.2" width="97" height="8" rx="1.5" ry="1.5" fill="#0da572" opacity="{{ calendar_slot_opacity }}" /><title>leonardokr/leo-git-statistics | 8aef09b | 2026-02-12 12:37</title></g><g><rect x="415.0" y="210.2" width="97" height="8" rx="1.5" ry="1.5" fill="#0da572" opacity="{{ calendar_slot_opacity }}" /><title>leonardokr/leo-git-statistics | 5485796 | 2026-02-12 12:37</title></g><g><rect x="415.0" y="215.2" width="97" height="8" rx="1.5" ry="1.5" fill="#0da572" opacity="{{ calendar_slot_opacity }}" /><title>leonardokr/leo-git-statistics | b4e865f | 2026-02-12 13:07</title></g><g><rect x="415.0" y="215.8" width="97" height="8" rx="1.5" ry="1.5" fill="#0da572" opacity="{{ calendar_slot_opacity }}" /><title>leonardokr/leo-git-statistics | 847718b | 2026-02-12 13:11</title></g><g><rect x="415.0" y="218.7" width="97" height="8" rx="1.5" ry="1.5" fill="#0da572" opacity="{{ calendar_slot_opacity }}" /><title>leonardokr/leo-git-statistics | 86f7b03 | 2026-02-12 13:28</title></g>
  <rect x="110" y="339" width="10" height="10" rx="2" ry="2" fill="#0da572" /><text x="126" y="348" class="legend-label">leonardokr/leo-git-stat...</text><rect x="280" y="339" width="10" height="10" rx="2" ry="2" fill="#1c94c8" /><text x="296" y="348" class="legend-label">leonardokr/leonardokr</text>
</svg>
