<svg width="900" height="384" viewBox="0 0 900 384" xmlns="http://www.w3.org/2000/svg">
  <defs>
    <linearGradient id="calendar-gradient" x1="0%" y1="0%" x2="100%" y2="100%">
      <stop offset="0%" style="stop-color:#0969da;stop-opacity:1" />
      <stop offset="100%" style="stop-color:#58a6ff;stop-opacity:1" />
    </linearGradient>
    <clipPath id="calendar-rounded">
      <rect x="0" y="0" width="900" height="384" rx="8" ry="8" />
    </clipPath>
  </defs>
  <style>
    .title {
      font-family: 'Segoe UI', Ubuntu, 'Helvetica Neue', sans-serif;
      font-size: 22px;
      font-weight: 700;
      fill: #0969da;
    }
    .subtitle {
      font-family: 'Segoe UI', Ubuntu, 'Helvetica Neue', sans-serif;
      font-size: 12px;
      font-weight: 500;
      fill: #57606a;
    }
    .day-label {
      font-family: 'Segoe UI', Ubuntu, 'Helvetica Neue', sans-serif;
      font-size: 11px;
      font-weight: 600;
      fill: #24292f;
    }
    .hour-label {
      font-family: 'Segoe UI', Ubuntu, 'Helvetica Neue', sans-serif;
      font-size: 10px;
      fill: #57606a;
      text-anchor: end;
      dominant-baseline: central;
    }
    .grid-line {
      stroke: #d0d7de;
      stroke-width: 1;
      opacity: 0.55;
    }
    .legend-label {
      font-family: 'Segoe UI', Ubuntu, 'Helvetica Neue', sans-serif;
      font-size: 11px;
      fill: #24292f;
      dominant-baseline: middle;
    }
  </style>
  <rect clip-path="url(#calendar-rounded)" width="100%" height="100%" fill="#FFFFFF" stroke="#d0d7de" stroke-width="1" />
  <rect x="0" y="378" width="900" height="6" fill="url(#calendar-gradient)" clip-path="url(#calendar-rounded)" />
  <text x="24" y="34" class="title">Weekly Commit Calendar</text>
  <text x="24" y="54" class="subtitle">Week: 2026-02-09 to 2026-02-15 | Timezone: America/Sao_Paulo</text>
  <text x="160.5" y="80" text-anchor="middle" class="day-label">Mon</text><text x="261.5" y="80" text-anchor="middle" class="day-label">Tue</text><text x="362.5" y="80" text-anchor="middle" class="day-label">Wed</text><text x="463.5" y="80" text-anchor="middle" class="day-label">Thu</text><text x="564.5" y="80" text-anchor="middle" class="day-label">Fri</text><text x="665.5" y="80" text-anchor="middle" class="day-label">Sat</text><text x="766.5" y="80" text-anchor="middle" class="day-label">Sun</text>
  <text x="56" y="94" class="hour-label">00:00</text><text x="56" y="134" class="hour-label">04:00</text><text x="56" y="174" class="hour-label">08:00</text><text x="56" y="214" class="hour-label">12:00</text><text x="56" y="254" class="hour-label">16:00</text><text x="56" y="294" class="hour-label">20:00</text><text x="56" y="334" class="hour-label">23:59</text>
  <line x1="110" y1="84" x2="110" y2="324" class="grid-line" /><line x1="211" y1="84" x2="211" y2="324" class="grid-line" /><line x1="312" y1="84" x2="312" y2="324" class="grid-line" /><line x1="413" y1="84" x2="413" y2="324" class="grid-line" /><line x1="514" y1="84" x2="514" y2="324" class="grid-line" /><line x1="615" y1="84" x2="615" y2="324" class="grid-line" /><line x1="716" y1="84" x2="716" y2="324" class="grid-line" /><line x1="817" y1="84" x2="817" y2="324" class="grid-line" /><line x1="110" y1="84" x2="817" y2="84" class="grid-line" /><line x1="110" y1="94" x2="817" y2="94" class="grid-line" /><line x1="110" y1="104" x2="817" y2="104" class="grid-line" /><line x1="110" y1="114" x2="817" y2="114" class="grid-line" /><line x1="110" y1="124" x2="817" y2="124" class="grid-line" /><line x1="110" y1="134" x2="817" y2="134" class="grid-line" /><line x1="110" y1="144" x2="817" y2="144" class="grid-line" /><line x1="110" y1="154" x2="817" y2="154" class="grid-line" /><line x1="110" y1="164" x2="817" y2="164" class="grid-line" /><line x1="110" y1="174" x2="817" y2="174" class="grid-line" /><line x1="110" y1="184" x2="817" y2="184" class="grid-line" /><line x1="110" y1="194" x2="817" y2="194" class="grid-line" /><line x1="110" y1="204" x2="817" y2="204" class="grid-line" /><line x1="110" y1="214" x2="817" y2="214" class="grid-line" /><line x1="110" y1="224" x2="817" y2="224" class="grid-line" /><line x1="110" y1="234" x2="817" y2="234" class="grid-line" /><line x1="110" y1="244" x2="817" y2="244" class="grid-line" /><line x1="110" y1="254" x2="817" y2="254" class="grid-line" /><line x1="110" y1="264" x2="817" y2="264" class="grid-line" /><line x1="110" y1="274" x2="817" y2="274" class="grid-line" /><line x1="110" y1="284" x2="817" y2="284" class="grid-line" /><line x1="110" y1="294" x2="817" y2="294" class="grid-line" /><line x1="110" y1="304" x2="817" y2="304" class="grid-line" /><line x1="110" y1="314" x2="817" y2="314" class="grid-line" /><line x1="110" y1="324" x2="817" y2="324" class="grid-line" />
  <g><rect x="112.0" y="124.0" width="97" height="8" rx="0 " ry="0" fill="#0da572" opacity="{{ calendar_slot_opacity }}" /><title>leonardokr/leo-git-statistics | ci: add GitHub Actions workflows for stats generation | 2026-02-09 04:01</title></g><g><rect x="112.0" y="125.0" width="97" height="8" rx="0 " ry="0" fill="#0da572" opacity="{{ calendar_slot_opacity }}" /><title>leonardokr/leo-git-statistics | feat(themes): add extensible theme system with YAML loader | 2026-02-09 04:03</title></g><g><rect x="112.0" y="126.0" width="97" height="8" rx="0 " ry="0" fill="#0da572" opacity="{{ calendar_slot_opacity }}" /><title>leonardokr/leo-git-statistics | feat(templates): redesign overview card with modern layout | 2026-02-09 04:13</title></g><g><rect x="112.0" y="127.0" width="97" height="8" rx="0 " ry="0" fill="#0da572" opacity="{{ calendar_slot_opacity }}" /><title>leonardokr/leo-git-statistics | Merge branch &apos;main&apos; of https://github.com/leonardokr/git-statistics | 2026-02-09 04:17</title></g><g><rect x="112.0" y="130.0" width="97" height="8" rx="0 " ry="0" fill="#0da572" opacity="{{ calendar_slot_opacity }}" /><title>leonardokr/leo-git-statistics | fix: disable recently-used languages to fix metrics error | 2026-02-09 04:38</title></g><g><rect x="112.0" y="133.0" width="97" height="8" rx="0 " ry="0" fill="#0da572" opacity="{{ calendar_slot_opacity }}" /><title>leonardokr/leo-git-statistics | feat(orchestrator): generate streak card for all themes | 2026-02-09 04:57</title></g><g><rect x="112.0" y="134.0" width="97" height="8" rx="0 " ry="0" fill="#0da572" opacity="{{ calendar_slot_opacity }}" /><title>leonardokr/leo-git-statistics | feat(templates): add contribution streak card | 2026-02-09 04:59</title></g><g><rect x="112.0" y="134.0" width="97" height="8" rx="0 " ry="0" fill="#0da572" opacity="{{ calendar_slot_opacity }}" /><title>leonardokr/leo-git-statistics | build: add generated statistic images | 2026-02-09 05:00</title></g><g><rect x="112.0" y="136.0" width="97" height="8" rx="0 " ry="0" fill="#0da572" opacity="{{ calendar_slot_opacity }}" /><title>leonardokr/leo-git-statistics | fix(stats): fixed templates animations | 2026-02-09 05:12</title></g><g><rect x="112.0" y="139.0" width="97" height="8" rx="0 " ry="0" fill="#0da572" opacity="{{ calendar_slot_opacity }}" /><title>leonardokr/leo-git-statistics | test: update tests for new theme system and formatter | 2026-02-09 05:30</title></g><g><rect x="112.0" y="143.0" width="97" height="8" rx="0 " ry="0" fill="#0da572" opacity="{{ calendar_slot_opacity }}" /><title>leonardokr/leo-git-statistics | refactor(stats): change size of languages bar | 2026-02-09 05:52</title></g><g><rect x="112.0" y="148.0" width="97" height="8" rx="0 " ry="0" fill="#0da572" opacity="{{ calendar_slot_opacity }}" /><title>leonardokr/leo-git-statistics | feat(utils): add file system utility functions | 2026-02-09 06:23</title></g><g><rect x="112.0" y="151.0" width="97" height="8" rx="0 " ry="0" fill="#0da572" opacity="{{ calendar_slot_opacity }}" /><title>leonardokr/leo-git-statistics | feat(stats): add streak calculation properties | 2026-02-09 06:42</title></g><g><rect x="112.0" y="153.0" width="97" height="8" rx="0 " ry="0" fill="#0da572" opacity="{{ calendar_slot_opacity }}" /><title>leonardokr/leo-git-statistics | feat: a script to test the templates | 2026-02-09 06:52</title></g><g><rect x="112.0" y="153.0" width="97" height="8" rx="0 " ry="0" fill="#0da572" opacity="{{ calendar_slot_opacity }}" /><title>leonardokr/leo-git-statistics | feat(core): implement core logic for config, environment, and stats collection | 2026-02-09 06:56</title></g><g><rect x="112.0" y="181.0" width="97" height="8" rx="0 " ry="0" fill="#1c94c8" opacity="{{ calendar_slot_opacity }}" /><title>leonardokr/leonardokr | Card profile-3d-contrib from yoshi389111/github-profile-3d-contrib added | 2026-02-09 09:45</title></g><g><rect x="112.0" y="182.0" width="97" height="8" rx="0 " ry="0" fill="#1c94c8" opacity="{{ calendar_slot_opacity }}" /><title>leonardokr/leonardokr | Removed unused resources | 2026-02-09 09:49</title></g><g><rect x="112.0" y="183.0" width="97" height="8" rx="0 " ry="0" fill="#1c94c8" opacity="{{ calendar_slot_opacity }}" /><title>leonardokr/leonardokr | Adjust workflow cron | 2026-02-09 09:52</title></g><g><rect x="112.0" y="183.0" width="97" height="8" rx="0 " ry="0" fill="#1c94c8" opacity="{{ calendar_slot_opacity }}" /><title>leonardokr/leonardokr | Removed unused folder | 2026-02-09 09:52</title></g><g><rect x="112.0" y="183.0" width="97" height="8" rx="0 " ry="0" fill="#1c94c8" opacity="{{ calendar_slot_opacity }}" /><title>leonardokr/leonardokr | Move 3D contribution output into profile directory | 2026-02-09 09:56</title></g><g><rect x="112.0" y="184.0" width="97" height="8" rx="0 " ry="0" fill="#1c94c8" opacity="{{ calendar_slot_opacity }}" /><title>leonardokr/leonardokr | Added a .gitignore file | 2026-02-09 09:58</title></g><g><rect x="112.0" y="189.0" width="97" height="8" rx="0 " ry="0" fill="#1c94c8" opacity="{{ calendar_slot_opacity }}" /><title>leonardokr/leonardokr | Update README.md | 2026-02-09 10:28</title></g><g><rect x="112.0" y="267.0" width="97" height="8" rx="0 " ry="0" fill="#0da572" opacity="{{ calendar_slot_opacity }}" /><title>leonardokr/leo-git-statistics | test: add unit tests for core and presentation modules | 2026-02-09 18:19</title></g><g><rect x="112.0" y="270.0" width="97" height="8" rx="0 " ry="0" fill="#0da572" opacity="{{ calendar_slot_opacity }}" /><title>leonardokr/leo-git-statistics | ci: unify workflows into single update_stats.yml | 2026-02-09 18:36</title></g><g><rect x="112.0" y="273.0" width="97" height="8" rx="0 " ry="0" fill="#0da572" opacity="{{ calendar_slot_opacity }}" /><title>leonardokr/leo-git-statistics | fix(ci): add write permissions and update actions versions | 2026-02-09 18:51</title></g><g><rect x="112.0" y="273.0" width="97" height="8" rx="0 " ry="0" fill="#0da572" opacity="{{ calendar_slot_opacity }}" /><title>leonardokr/leo-git-statistics | feat(templates): redesign languages card with gradient bar | 2026-02-09 18:56</title></g><g><rect x="112.0" y="279.0" width="97" height="8" rx="0 " ry="0" fill="#0da572" opacity="{{ calendar_slot_opacity }}" /><title>leonardokr/leo-git-statistics | feat: add application entry point and orchestrator | 2026-02-09 19:31</title></g><g><rect x="112.0" y="280.0" width="97" height="8" rx="0 " ry="0" fill="#0da572" opacity="{{ calendar_slot_opacity }}" /><title>leonardokr/leo-git-statistics | refactor(config): integrate dynamic theme loader | 2026-02-09 19:34</title></g><g><rect x="112.0" y="283.0" width="97" height="8" rx="0 " ry="0" fill="#0da572" opacity="{{ calendar_slot_opacity }}" /><title>leonardokr/leo-git-statistics | feat(db): add database management logic and initial data | 2026-02-09 19:53</title></g><g><rect x="112.0" y="283.0" width="97" height="8" rx="0 " ry="0" fill="#0da572" opacity="{{ calendar_slot_opacity }}" /><title>leonardokr/leo-git-statistics | docs: rewrite README for portfolio presentation | 2026-02-09 19:53</title></g><g><rect x="112.0" y="283.0" width="97" height="8" rx="0 " ry="0" fill="#0da572" opacity="{{ calendar_slot_opacity }}" /><title>leonardokr/leo-git-statistics | chore: initial repository configuration | 2026-02-09 19:54</title></g><g><rect x="112.0" y="283.0" width="97" height="8" rx="0 " ry="0" fill="#0da572" opacity="{{ calendar_slot_opacity }}" /><title>leonardokr/leo-git-statistics | refactor(formatter): use SVG rects for language progress bar | 2026-02-09 19:57</title></g><g><rect x="112.0" y="288.0" width="97" height="8" rx="0 " ry="0" fill="#0da572" opacity="{{ calendar_slot_opacity }}" /><title>leonardokr/leo-git-statistics | fix: correct dark mode colors in languages SVG | 2026-02-09 20:25</title></g><g><rect x="112.0" y="290.0" width="97" height="8" rx="0 " ry="0" fill="#0da572" opacity="{{ calendar_slot_opacity }}" /><title>leonardokr/leo-git-statistics | chore: simplify .gitignore | 2026-02-09 20:35</title></g><g><rect x="112.0" y="291.0" width="97" height="8" rx="0 " ry="0" fill="#0da572" opacity="{{ calendar_slot_opacity }}" /><title>leonardokr/leo-git-statistics | feat(config): add theme selection in config.yml | 2026-02-09 20:43</title></g><g><rect x="112.0" y="293.0" width="97" height="8" rx="0 " ry="0" fill="#0da572" opacity="{{ calendar_slot_opacity }}" /><title>leonardokr/leo-git-statistics | feat(generators): add modular SVG generators for stats cards | 2026-02-09 20:51</title></g><g><rect x="112.0" y="293.0" width="97" height="8" rx="0 " ry="0" fill="#0da572" opacity="{{ calendar_slot_opacity }}" /><title>leonardokr/leo-git-statistics | feat(core): add mock stats for testing without GitHub API | 2026-02-09 20:51</title></g><g><rect x="112.0" y="293.0" width="97" height="8" rx="0 " ry="0" fill="#0da572" opacity="{{ calendar_slot_opacity }}" /><title>leonardokr/leo-git-statistics | feat(templates): add streak battery SVG template | 2026-02-09 20:51</title></g><g><rect x="112.0" y="293.0" width="97" height="8" rx="0 " ry="0" fill="#0da572" opacity="{{ calendar_slot_opacity }}" /><title>leonardokr/leo-git-statistics | feat(config): add streak battery template configuration | 2026-02-09 20:51</title></g><g><rect x="112.0" y="293.0" width="97" height="8" rx="0 " ry="0" fill="#0da572" opacity="{{ calendar_slot_opacity }}" /><title>leonardokr/leo-git-statistics | refactor(orchestrator): use modular generators instead of inline logic | 2026-02-09 20:52</title></g><g><rect x="112.0" y="293.0" width="97" height="8" rx="0 " ry="0" fill="#0da572" opacity="{{ calendar_slot_opacity }}" /><title>leonardokr/leo-git-statistics | refactor(test): use generators with mock data instead of duplicated logic | 2026-02-09 20:52</title></g><g><rect x="112.0" y="293.0" width="97" height="8" rx="0 " ry="0" fill="#0da572" opacity="{{ calendar_slot_opacity }}" /><title>leonardokr/leo-git-statistics | chore: update generated stats images | 2026-02-09 20:52</title></g><g><rect x="112.0" y="293.0" width="97" height="8" rx="0 " ry="0" fill="#0da572" opacity="{{ calendar_slot_opacity }}" /><title>leonardokr/leo-git-statistics | feat(presentation): implement svg templates and stats formatting | 2026-02-09 20:53</title></g><g><rect x="112.0" y="293.0" width="97" height="8" rx="0 " ry="0" fill="#0da572" opacity="{{ calendar_slot_opacity }}" /><title>leonardokr/leo-git-statistics | feat(stats): add recent_contributions property for streak battery | 2026-02-09 20:53</title></g><g><rect x="112.0" y="293.0" width="97" height="8" rx="0 " ry="0" fill="#0da572" opacity="{{ calendar_slot_opacity }}" /><title>leonardokr/leo-git-statistics | fix(workflow): remove deprecated output_action option from metrics | 2026-02-09 20:53</title></g><g><rect x="112.0" y="293.0" width="97" height="8" rx="0 " ry="0" fill="#0da572" opacity="{{ calendar_slot_opacity }}" /><title>leonardokr/leo-git-statistics | chore(config): simplify themes to default, light and dark | 2026-02-09 20:53</title></g><g><rect x="112.0" y="293.0" width="97" height="8" rx="0 " ry="0" fill="#0da572" opacity="{{ calendar_slot_opacity }}" /><title>leonardokr/leo-git-statistics | docs: add license, readme and project metadata | 2026-02-09 20:54</title></g><g><rect x="112.0" y="293.0" width="97" height="8" rx="0 " ry="0" fill="#0da572" opacity="{{ calendar_slot_opacity }}" /><title>leonardokr/leo-git-statistics | Merge branch &apos;main&apos; of https://github.com/leonardokr/git-statistics | 2026-02-09 20:55</title></g><g><rect x="112.0" y="294.0" width="97" height="8" rx="0 " ry="0" fill="#0da572" opacity="{{ calendar_slot_opacity }}" /><title>leonardokr/leo-git-statistics | fix(ci): correct python heredoc syntax in workflow | 2026-02-09 20:58</title></g><g><rect x="112.0" y="298.0" width="97" height="8" rx="0 " ry="0" fill="#0da572" opacity="{{ calendar_slot_opacity }}" /><title>leonardokr/leo-git-statistics | feat(templates): add languages_puzzle.svg treemap template | 2026-02-09 21:25</title></g><g><rect x="112.0" y="298.0" width="97" height="8" rx="0 " ry="0" fill="#0da572" opacity="{{ calendar_slot_opacity }}" /><title>leonardokr/leo-git-statistics | feat(generators): add LanguagesPuzzleGenerator class | 2026-02-09 21:25</title></g><g><rect x="112.0" y="298.0" width="97" height="8" rx="0 " ry="0" fill="#0da572" opacity="{{ calendar_slot_opacity }}" /><title>leonardokr/leo-git-statistics | feat(formatter): add treemap algorithm and palette color generation | 2026-02-09 21:26</title></g><g><rect x="112.0" y="298.0" width="97" height="8" rx="0 " ry="0" fill="#0da572" opacity="{{ calendar_slot_opacity }}" /><title>leonardokr/leo-git-statistics | feat(themes): add default puzzle colors to theme loader | 2026-02-09 21:26</title></g><g><rect x="112.0" y="298.0" width="97" height="8" rx="0 " ry="0" fill="#0da572" opacity="{{ calendar_slot_opacity }}" /><title>leonardokr/leo-git-statistics | feat(themes): add puzzle_hue and color ranges for all themes | 2026-02-09 21:26</title></g><g><rect x="112.0" y="298.0" width="97" height="8" rx="0 " ry="0" fill="#0da572" opacity="{{ calendar_slot_opacity }}" /><title>leonardokr/leo-git-statistics | feat(config): add LANGUAGES_PUZZLE_TEMPLATE constant | 2026-02-09 21:26</title></g><g><rect x="112.0" y="298.0" width="97" height="8" rx="0 " ry="0" fill="#0da572" opacity="{{ calendar_slot_opacity }}" /><title>leonardokr/leo-git-statistics | feat(generators): export LanguagesPuzzleGenerator | 2026-02-09 21:26</title></g><g><rect x="112.0" y="299.0" width="97" height="8" rx="0 " ry="0" fill="#0da572" opacity="{{ calendar_slot_opacity }}" /><title>leonardokr/leo-git-statistics | feat(orchestrator): register LanguagesPuzzleGenerator | 2026-02-09 21:27</title></g><g><rect x="112.0" y="299.0" width="97" height="8" rx="0 " ry="0" fill="#0da572" opacity="{{ calendar_slot_opacity }}" /><title>leonardokr/leo-git-statistics | feat(test): add LanguagesPuzzleGenerator to generate_test | 2026-02-09 21:27</title></g><g><rect x="112.0" y="299.0" width="97" height="8" rx="0 " ry="0" fill="#0da572" opacity="{{ calendar_slot_opacity }}" /><title>leonardokr/leo-git-statistics | docs(readme): add streak_battery and languages_puzzle examples | 2026-02-09 21:27</title></g><g><rect x="112.0" y="299.0" width="97" height="8" rx="0 " ry="0" fill="#0da572" opacity="{{ calendar_slot_opacity }}" /><title>leonardokr/leo-git-statistics | chore(gitignore): ignore generated_images folder | 2026-02-09 21:28</title></g><g><rect x="112.0" y="299.0" width="97" height="8" rx="0 " ry="0" fill="#0da572" opacity="{{ calendar_slot_opacity }}" /><title>leonardokr/leo-git-statistics | Merge branch &apos;main&apos; of https://github.com/leonardokr/git-statistics | 2026-02-09 21:29</title></g><g><rect x="112.0" y="301.0" width="97" height="8" rx="0 " ry="0" fill="#0da572" opacity="{{ calendar_slot_opacity }}" /><title>leonardokr/leo-git-statistics | fix(templates): adjust streak informations positions | 2026-02-09 21:39</title></g><g><rect x="112.0" y="301.0" width="97" height="8" rx="0 " ry="0" fill="#0da572" opacity="{{ calendar_slot_opacity }}" /><title>leonardokr/leo-git-statistics | Merge branch &apos;main&apos; of https://github.com/leonardokr/git-statistics | 2026-02-09 21:39</title></g><g><rect x="213.0" y="129.0" width="97" height="8" rx="0 " ry="0" fill="#0da572" opacity="{{ calendar_slot_opacity }}" /><title>leonardokr/leo-git-statistics | Merge branch &apos;main&apos; of https://github.com/leonardokr/git-statistics | 2026-02-10 04:28</title></g><g><rect x="213.0" y="130.0" width="97" height="8" rx="0 " ry="0" fill="#0da572" opacity="{{ calendar_slot_opacity }}" /><title>leonardokr/leo-git-statistics | debug: log last 10 days of contribution calendar | 2026-02-10 04:36</title></g><g><rect x="213.0" y="131.0" width="97" height="8" rx="0 " ry="0" fill="#0da572" opacity="{{ calendar_slot_opacity }}" /><title>leonardokr/leo-git-statistics | fix(ci): move git pull --rebase after commit to avoid push rejection | 2026-02-10 04:43</title></g><g><rect x="213.0" y="137.0" width="97" height="8" rx="0 " ry="0" fill="#0da572" opacity="{{ calendar_slot_opacity }}" /><title>leonardokr/leo-git-statistics | Merge branch &apos;main&apos; of https://github.com/leonardokr/git-statistics | 2026-02-10 05:21</title></g><g><rect x="213.0" y="139.0" width="97" height="8" rx="0 " ry="0" fill="#0da572" opacity="{{ calendar_slot_opacity }}" /><title>leonardokr/leo-git-statistics | feat: support custom output filename via output_name | 2026-02-10 05:30</title></g><g><rect x="213.0" y="139.0" width="97" height="8" rx="0 " ry="0" fill="#0da572" opacity="{{ calendar_slot_opacity }}" /><title>leonardokr/leo-git-statistics | docs: add generate_test.py usage and update architecture section | 2026-02-10 05:31</title></g><g><rect x="213.0" y="140.0" width="97" height="8" rx="0 " ry="0" fill="#0da572" opacity="{{ calendar_slot_opacity }}" /><title>leonardokr/leo-git-statistics | debug: log all languages per repo to investigate incorrect detection | 2026-02-10 05:36</title></g><g><rect x="213.0" y="141.0" width="97" height="8" rx="0 " ry="0" fill="#0da572" opacity="{{ calendar_slot_opacity }}" /><title>leonardokr/leo-git-statistics | config: exclude repo with incorrect language detection | 2026-02-10 05:41</title></g><g><rect x="213.0" y="148.0" width="97" height="8" rx="0 " ry="0" fill="#0da572" opacity="{{ calendar_slot_opacity }}" /><title>leonardokr/leo-git-statistics | Merge branch &apos;main&apos; of https://github.com/leonardokr/git-statistics | 2026-02-10 06:22</title></g><g><rect x="213.0" y="152.0" width="97" height="8" rx="0 " ry="0" fill="#0da572" opacity="{{ calendar_slot_opacity }}" /><title>leonardokr/leo-git-statistics | feat(puzzle): use sqrt scaling for balanced block sizes | 2026-02-10 06:46</title></g><g><rect x="213.0" y="152.0" width="97" height="8" rx="0 " ry="0" fill="#0da572" opacity="{{ calendar_slot_opacity }}" /><title>leonardokr/leo-git-statistics | refactor(ci): remove lowlighter/metrics and add git pull --rebase before push | 2026-02-10 06:48</title></g><g><rect x="213.0" y="153.0" width="97" height="8" rx="0 " ry="0" fill="#0da572" opacity="{{ calendar_slot_opacity }}" /><title>leonardokr/leo-git-statistics | feat(puzzle): improve color palette with golden angle distribution | 2026-02-10 06:51</title></g><g><rect x="213.0" y="153.0" width="97" height="8" rx="0 " ry="0" fill="#0da572" opacity="{{ calendar_slot_opacity }}" /><title>leonardokr/leo-git-statistics | chore(gitignore): track generated_images for debugging | 2026-02-10 06:52</title></g><g><rect x="213.0" y="153.0" width="97" height="8" rx="0 " ry="0" fill="#0da572" opacity="{{ calendar_slot_opacity }}" /><title>leonardokr/leo-git-statistics | feat(themes): add puzzle_hue_spread to all themes for better color variety | 2026-02-10 06:54</title></g><g><rect x="213.0" y="154.0" width="97" height="8" rx="0 " ry="0" fill="#0da572" opacity="{{ calendar_slot_opacity }}" /><title>leonardokr/leo-git-statistics | feat(templates): unify streak_battery visual style with gradient footer | 2026-02-10 06:58</title></g><g><rect x="213.0" y="256.0" width="97" height="8" rx="0 " ry="0" fill="#0da572" opacity="{{ calendar_slot_opacity }}" /><title>leonardokr/leo-git-statistics | fix: standardize languages.svg dimensions to 495x195 | 2026-02-10 17:11</title></g><g><rect x="213.0" y="258.0" width="97" height="8" rx="0 " ry="0" fill="#0da572" opacity="{{ calendar_slot_opacity }}" /><title>leonardokr/leo-git-statistics | chore: add sample SVG images for all themes | 2026-02-10 17:24</title></g><g><rect x="213.0" y="258.0" width="97" height="8" rx="0 " ry="0" fill="#0da572" opacity="{{ calendar_slot_opacity }}" /><title>leonardokr/leo-git-statistics | docs: add all card previews for theme examples | 2026-02-10 17:24</title></g><g><rect x="213.0" y="261.0" width="97" height="8" rx="0 " ry="0" fill="#0da572" opacity="{{ calendar_slot_opacity }}" /><title>leonardokr/leo-git-statistics | fix: simplify streak_battery template layout | 2026-02-10 17:41</title></g><g><rect x="213.0" y="265.0" width="97" height="8" rx="0 " ry="0" fill="#0da572" opacity="{{ calendar_slot_opacity }}" /><title>leonardokr/leo-git-statistics | chore: regenerate SVGs with improved puzzle colors | 2026-02-10 18:03</title></g><g><rect x="213.0" y="268.0" width="97" height="8" rx="0 " ry="0" fill="#0da572" opacity="{{ calendar_slot_opacity }}" /><title>leonardokr/leo-git-statistics | style(puzzle): add header, icon and gradient bar matching other cards | 2026-02-10 18:26</title></g><g><rect x="213.0" y="268.0" width="97" height="8" rx="0 " ry="0" fill="#0da572" opacity="{{ calendar_slot_opacity }}" /><title>leonardokr/leo-git-statistics | refactor(config): remove metrics section and cleanup redundant comments | 2026-02-10 18:26</title></g><g><rect x="213.0" y="269.0" width="97" height="8" rx="0 " ry="0" fill="#0da572" opacity="{{ calendar_slot_opacity }}" /><title>leonardokr/leo-git-statistics | refactor: standardize suffix theme names to snake_case | 2026-02-10 18:27</title></g><g><rect x="213.0" y="271.0" width="97" height="8" rx="0 " ry="0" fill="#0da572" opacity="{{ calendar_slot_opacity }}" /><title>leonardokr/leo-git-statistics | chore: remove generated images from repository | 2026-02-10 18:40</title></g><g><rect x="213.0" y="278.0" width="97" height="8" rx="0 " ry="0" fill="#0da572" opacity="{{ calendar_slot_opacity }}" /><title>leonardokr/leo-git-statistics | Merge branch &apos;main&apos; of https://github.com/leonardokr/git-statistics | 2026-02-10 19:24</title></g><g><rect x="213.0" y="279.0" width="97" height="8" rx="0 " ry="0" fill="#0da572" opacity="{{ calendar_slot_opacity }}" /><title>leonardokr/leo-git-statistics | feat(puzzle): add hue_spread and gap parameters to generator | 2026-02-10 19:27</title></g><g><rect x="213.0" y="280.0" width="97" height="8" rx="0 " ry="0" fill="#0da572" opacity="{{ calendar_slot_opacity }}" /><title>leonardokr/leo-git-statistics | feat: add optional output_name to SVG generators | 2026-02-10 19:34</title></g><g><rect x="213.0" y="284.0" width="97" height="8" rx="0 " ry="0" fill="#0da572" opacity="{{ calendar_slot_opacity }}" /><title>leonardokr/leo-git-statistics | fix: adjust battery fill height in streak_battery template | 2026-02-10 20:01</title></g><g><rect x="213.0" y="288.0" width="97" height="8" rx="0 " ry="0" fill="#0da572" opacity="{{ calendar_slot_opacity }}" /><title>leonardokr/leo-git-statistics | fix(puzzle): update treemap dimensions to fit new card layout | 2026-02-10 20:22</title></g><g><rect x="213.0" y="290.0" width="97" height="8" rx="0 " ry="0" fill="#0da572" opacity="{{ calendar_slot_opacity }}" /><title>leonardokr/leo-git-statistics | fix(stats): filter contribution calendar to exclude future dates | 2026-02-10 20:34</title></g><g><rect x="213.0" y="291.0" width="97" height="8" rx="0 " ry="0" fill="#0da572" opacity="{{ calendar_slot_opacity }}" /><title>leonardokr/leo-git-statistics | fix: replace bare except with specific exceptions in github_client | 2026-02-10 20:42</title></g><g><rect x="213.0" y="291.0" width="97" height="8" rx="0 " ry="0" fill="#0da572" opacity="{{ calendar_slot_opacity }}" /><title>leonardokr/leo-git-statistics | fix(orchestrator): pre-fetch stats to avoid race conditions in parallel generators | 2026-02-10 20:42</title></g><g><rect x="213.0" y="291.0" width="97" height="8" rx="0 " ry="0" fill="#0da572" opacity="{{ calendar_slot_opacity }}" /><title>leonardokr/leo-git-statistics | refactor: remove async from __init__ in orchestrator | 2026-02-10 20:43</title></g><g><rect x="213.0" y="306.0" width="97" height="8" rx="0 " ry="0" fill="#0da572" opacity="{{ calendar_slot_opacity }}" /><title>leonardokr/leo-git-statistics | refactor: add lazy_async_property decorator for caching | 2026-02-10 22:12</title></g><g><rect x="213.0" y="307.0" width="97" height="8" rx="0 " ry="0" fill="#0da572" opacity="{{ calendar_slot_opacity }}" /><title>leonardokr/leo-git-statistics | refactor: deduplicate _to_bool function in environment.py | 2026-02-10 22:15</title></g><g><rect x="213.0" y="307.0" width="97" height="8" rx="0 " ry="0" fill="#0da572" opacity="{{ calendar_slot_opacity }}" /><title>leonardokr/leo-git-statistics | fix: use Path(__file__) for database path resolution | 2026-02-10 22:16</title></g><g><rect x="213.0" y="307.0" width="97" height="8" rx="0 " ry="0" fill="#0da572" opacity="{{ calendar_slot_opacity }}" /><title>leonardokr/leo-git-statistics | refactor: extract hardcoded values to class constants | 2026-02-10 22:17</title></g><g><rect x="213.0" y="307.0" width="97" height="8" rx="0 " ry="0" fill="#0da572" opacity="{{ calendar_slot_opacity }}" /><title>leonardokr/leo-git-statistics | fix: handle None repo_name in is_repo_name_invalid | 2026-02-10 22:18</title></g><g><rect x="213.0" y="309.0" width="97" height="8" rx="0 " ry="0" fill="#0da572" opacity="{{ calendar_slot_opacity }}" /><title>leonardokr/leo-git-statistics | refactor: split Environment into RepositoryFilter, TrafficStats, DisplaySettings | 2026-02-10 22:30</title></g><g><rect x="213.0" y="311.0" width="97" height="8" rx="0 " ry="0" fill="#0da572" opacity="{{ calendar_slot_opacity }}" /><title>leonardokr/leo-git-statistics | refactor: centralize to_bool in helpers module | 2026-02-10 22:43</title></g><g><rect x="213.0" y="311.0" width="97" height="8" rx="0 " ry="0" fill="#0da572" opacity="{{ calendar_slot_opacity }}" /><title>leonardokr/leo-git-statistics | fix: remove direct os.environ modification in TrafficStats | 2026-02-10 22:44</title></g><g><rect x="213.0" y="312.0" width="97" height="8" rx="0 " ry="0" fill="#0da572" opacity="{{ calendar_slot_opacity }}" /><title>leonardokr/leo-git-statistics | refactor: use render_for_all_themes in language generators | 2026-02-10 22:46</title></g><g><rect x="213.0" y="312.0" width="97" height="8" rx="0 " ry="0" fill="#0da572" opacity="{{ calendar_slot_opacity }}" /><title>leonardokr/leo-git-statistics | fix: add error handling for database file operations | 2026-02-10 22:50</title></g><g><rect x="213.0" y="313.0" width="97" height="8" rx="0 " ry="0" fill="#0da572" opacity="{{ calendar_slot_opacity }}" /><title>leonardokr/leo-git-statistics | Merge branch &apos;main&apos; of https://github.com/leonardokr/git-statistics | 2026-02-10 22:55</title></g><g><rect x="314.0" y="128.0" width="97" height="8" rx="0 " ry="0" fill="#0da572" opacity="{{ calendar_slot_opacity }}" /><title>leonardokr/leo-git-statistics | refactor: extract GitHub credentials from Config to GitHubCredentials class | 2026-02-11 04:25</title></g><g><rect x="314.0" y="130.0" width="97" height="8" rx="0 " ry="0" fill="#0da572" opacity="{{ calendar_slot_opacity }}" /><title>leonardokr/leo-git-statistics | Merge branch &apos;main&apos; of https://github.com/leonardokr/git-statistics | 2026-02-11 04:37</title></g><g><rect x="314.0" y="130.0" width="97" height="8" rx="0 " ry="0" fill="#0da572" opacity="{{ calendar_slot_opacity }}" /><title>leonardokr/leo-git-statistics | refactor: inject dependencies in Environment constructor | 2026-02-11 04:38</title></g><g><rect x="314.0" y="131.0" width="97" height="8" rx="0 " ry="0" fill="#0da572" opacity="{{ calendar_slot_opacity }}" /><title>leonardokr/leo-git-statistics | refactor: extract GraphQL query builders from GitHubClient | 2026-02-11 04:44</title></g><g><rect x="314.0" y="135.0" width="97" height="8" rx="0 " ry="0" fill="#0da572" opacity="{{ calendar_slot_opacity }}" /><title>leonardokr/leo-git-statistics | refactor: move template constants from Config into each Generator | 2026-02-11 05:08</title></g><g><rect x="314.0" y="136.0" width="97" height="8" rx="0 " ry="0" fill="#0da572" opacity="{{ calendar_slot_opacity }}" /><title>leonardokr/leo-git-statistics | refactor: remove unnecessary async from sync methods in StatsCollector | 2026-02-11 05:14</title></g><g><rect x="314.0" y="139.0" width="97" height="8" rx="0 " ry="0" fill="#0da572" opacity="{{ calendar_slot_opacity }}" /><title>leonardokr/leo-git-statistics | refactor: uniform generate() signature with environment in BaseGenerator (LSP) | 2026-02-11 05:27</title></g><g><rect x="314.0" y="140.0" width="97" height="8" rx="0 " ry="0" fill="#0da572" opacity="{{ calendar_slot_opacity }}" /><title>leonardokr/leo-git-statistics | refactor: make DB_PATH injectable in GitRepoStatsDB constructor | 2026-02-11 05:37</title></g><g><rect x="314.0" y="149.0" width="97" height="8" rx="0 " ry="0" fill="#0da572" opacity="{{ calendar_slot_opacity }}" /><title>leonardokr/leo-git-statistics | Merge branch &apos;main&apos; of https://github.com/leonardokr/git-statistics | 2026-02-11 06:28</title></g><g><rect x="314.0" y="150.0" width="97" height="8" rx="0 " ry="0" fill="#0da572" opacity="{{ calendar_slot_opacity }}" /><title>leonardokr/leo-git-statistics | refactor: extract _create_generators method in ImageOrchestrator | 2026-02-11 06:34</title></g><g><rect x="314.0" y="150.0" width="97" height="8" rx="0 " ry="0" fill="#0da572" opacity="{{ calendar_slot_opacity }}" /><title>leonardokr/leo-git-statistics | refactor: decompose StatsCollector into specialized sub-collectors | 2026-02-11 06:37</title></g><g><rect x="314.0" y="151.0" width="97" height="8" rx="0 " ry="0" fill="#0da572" opacity="{{ calendar_slot_opacity }}" /><title>leonardokr/leo-git-statistics | refactor: use render_for_all_themes in StreakBatteryGenerator | 2026-02-11 06:43</title></g><g><rect x="314.0" y="153.0" width="97" height="8" rx="0 " ry="0" fill="#0da572" opacity="{{ calendar_slot_opacity }}" /><title>leonardokr/leo-git-statistics | refactor: inject FileSystem dependency in SVGTemplate constructor | 2026-02-11 06:55</title></g><g><rect x="314.0" y="265.0" width="97" height="8" rx="0 " ry="0" fill="#0da572" opacity="{{ calendar_slot_opacity }}" /><title>leonardokr/leo-git-statistics | refactor: add TemplateRenderer, Formatter and Database Protocols (ISP) | 2026-02-11 18:04</title></g><g><rect x="314.0" y="267.0" width="97" height="8" rx="0 " ry="0" fill="#0da572" opacity="{{ calendar_slot_opacity }}" /><title>leonardokr/leo-git-statistics | refactor: create segregated Protocol interfaces for stats providers (ISP) | 2026-02-11 18:21</title></g><g><rect x="314.0" y="268.0" width="97" height="8" rx="0 " ry="0" fill="#0da572" opacity="{{ calendar_slot_opacity }}" /><title>leonardokr/leo-git-statistics | refactor: extract _collect_traffic_entries to deduplicate get_views/get_clones | 2026-02-11 18:22</title></g><g><rect x="314.0" y="269.0" width="97" height="8" rx="0 " ry="0" fill="#0da572" opacity="{{ calendar_slot_opacity }}" /><title>leonardokr/leo-git-statistics | refactor: accept optional config and environment in create_and_run (DIP) | 2026-02-11 18:28</title></g><g><rect x="314.0" y="269.0" width="97" height="8" rx="0 " ry="0" fill="#0da572" opacity="{{ calendar_slot_opacity }}" /><title>leonardokr/leo-git-statistics | refactor: replace hardcoded generator list with registry auto-discovery (OCP) | 2026-02-11 18:33</title></g><g><rect x="314.0" y="270.0" width="97" height="8" rx="0 " ry="0" fill="#0da572" opacity="{{ calendar_slot_opacity }}" /><title>leonardokr/leo-git-statistics | refactor: unify _init_views/_init_clones into generic _init_metric using to_bool | 2026-02-11 18:38</title></g><g><rect x="314.0" y="271.0" width="97" height="8" rx="0 " ry="0" fill="#0da572" opacity="{{ calendar_slot_opacity }}" /><title>leonardokr/leo-git-statistics | fix: replace generic Exception catches with specific exceptions in GitHubClient | 2026-02-11 18:45</title></g><g><rect x="314.0" y="272.0" width="97" height="8" rx="0 " ry="0" fill="#0da572" opacity="{{ calendar_slot_opacity }}" /><title>leonardokr/leo-git-statistics | fix: update tests to match current attribute paths and theme suffixes | 2026-02-11 18:50</title></g><g><rect x="314.0" y="273.0" width="97" height="8" rx="0 " ry="0" fill="#0da572" opacity="{{ calendar_slot_opacity }}" /><title>leonardokr/leo-git-statistics | refactor: use Protocol type hints in BaseGenerator instead of concrete classes (DIP) | 2026-02-11 18:52</title></g><g><rect x="314.0" y="277.0" width="97" height="8" rx="0 " ry="0" fill="#0da572" opacity="{{ calendar_slot_opacity }}" /><title>leonardokr/leo-git-statistics | refactor: uniform generate() signature with OUTPUT_NAME class attribute (LSP) | 2026-02-11 19:19</title></g><g><rect x="314.0" y="279.0" width="97" height="8" rx="0 " ry="0" fill="#0da572" opacity="{{ calendar_slot_opacity }}" /><title>leonardokr/leo-git-statistics | refactor: add collector registration mechanism to StatsCollector (OCP) | 2026-02-11 19:27</title></g><g><rect x="314.0" y="279.0" width="97" height="8" rx="0 " ry="0" fill="#0da572" opacity="{{ calendar_slot_opacity }}" /><title>leonardokr/leo-git-statistics | docs(readme): align with recent project updates | 2026-02-11 19:32</title></g><g><rect x="314.0" y="282.0" width="97" height="8" rx="0 " ry="0" fill="#0da572" opacity="{{ calendar_slot_opacity }}" /><title>leonardokr/leo-git-statistics | refactor: inject theme loader callable in Config constructor | 2026-02-11 19:50</title></g><g><rect x="314.0" y="284.0" width="97" height="8" rx="0 " ry="0" fill="#0da572" opacity="{{ calendar_slot_opacity }}" /><title>leonardokr/leo-git-statistics | fix: correct public repo exclusion logic in is_repo_type_excluded | 2026-02-11 19:58</title></g><g><rect x="314.0" y="291.0" width="97" height="8" rx="0 " ry="0" fill="#0da572" opacity="{{ calendar_slot_opacity }}" /><title>leonardokr/leo-git-statistics | fix: add safe list coercion for REST API responses in StatsCollector | 2026-02-11 20:43</title></g><g><rect x="314.0" y="292.0" width="97" height="8" rx="0 " ry="0" fill="#0da572" opacity="{{ calendar_slot_opacity }}" /><title>leonardokr/leo-git-statistics | refactor: extract treemap and palette algorithms from StatsFormatter | 2026-02-11 20:49</title></g><g><rect x="314.0" y="293.0" width="97" height="8" rx="0 " ry="0" fill="#0da572" opacity="{{ calendar_slot_opacity }}" /><title>leonardokr/leo-git-statistics | refactor: inject GitHubClient dependency in StatsCollector | 2026-02-11 20:57</title></g><g><rect x="415.0" y="210.0" width="97" height="8" rx="0 " ry="0" fill="#0da572" opacity="{{ calendar_slot_opacity }}" /><title>leonardokr/leo-git-statistics | feat(core): collect weekly commit schedule data with privacy-safe metadata | 2026-02-12 12:34</title></g><g><rect x="415.0" y="210.0" width="97" height="8" rx="0 " ry="0" fill="#0da572" opacity="{{ calendar_slot_opacity }}" /><title>leonardokr/leo-git-statistics | feat(calendar): add weekly commit calendar generator and SVG template | 2026-02-12 12:34</title></g><g><rect x="415.0" y="210.0" width="97" height="8" rx="0 " ry="0" fill="#0da572" opacity="{{ calendar_slot_opacity }}" /><title>leonardokr/leo-git-statistics | feat(themes): add commit calendar theme tokens across all theme packs | 2026-02-12 12:35</title></g><g><rect x="415.0" y="210.0" width="97" height="8" rx="0 " ry="0" fill="#0da572" opacity="{{ calendar_slot_opacity }}" /><title>leonardokr/leo-git-statistics | test(mock): add weekly commit calendar fixtures and generator smoke path | 2026-02-12 12:37</title></g><g><rect x="415.0" y="210.0" width="97" height="8" rx="0 " ry="0" fill="#0da572" opacity="{{ calendar_slot_opacity }}" /><title>leonardokr/leo-git-statistics | docs(readme): document weekly commit calendar card and sample naming | 2026-02-12 12:37</title></g><g><rect x="415.0" y="215.0" width="97" height="8" rx="0 " ry="0" fill="#0da572" opacity="{{ calendar_slot_opacity }}" /><title>leonardokr/leo-git-statistics | docs(readme): new theme cards examples | 2026-02-12 13:07</title></g><g><rect x="415.0" y="216.0" width="97" height="8" rx="0 " ry="0" fill="#0da572" opacity="{{ calendar_slot_opacity }}" /><title>leonardokr/leo-git-statistics | docs(readme): add profile workflow guidance and update calendar docs | 2026-02-12 13:11</title></g><g><rect x="415.0" y="219.0" width="97" height="8" rx="0 " ry="0" fill="#0da572" opacity="{{ calendar_slot_opacity }}" /><title>leonardokr/leo-git-statistics | Merge branch &apos;main&apos; of https://github.com/leonardokr/leo-git-statistics | 2026-02-12 13:28</title></g><g><rect x="415.0" y="220.0" width="97" height="8" rx="0 " ry="0" fill="#0da572" opacity="{{ calendar_slot_opacity }}" /><title>leonardokr/leo-git-statistics | docs(readme): fixed size of the Commit Calendar example | 2026-02-12 13:34</title></g><g><rect x="415.0" y="220.0" width="97" height="8" rx="0 " ry="0" fill="#0da572" opacity="{{ calendar_slot_opacity }}" /><title>leonardokr/leo-git-statistics | Merge branch &apos;main&apos; of https://github.com/leonardokr/leo-git-statistics | 2026-02-12 13:34</title></g><g><rect x="415.0" y="221.0" width="97" height="8" rx="0 " ry="0" fill="#0da572" opacity="{{ calendar_slot_opacity }}" /><title>leonardokr/leo-git-statistics | fix(calendar): snap commit blocks to time buckets for consistent alignment | 2026-02-12 13:44</title></g><g><rect x="415.0" y="221.0" width="97" height="8" rx="0 " ry="0" fill="#0da572" opacity="{{ calendar_slot_opacity }}" /><title>leonardokr/leo-git-statistics | Merge branch &apos;main&apos; of https://github.com/leonardokr/leo-git-statistics | 2026-02-12 13:44</title></g><g><rect x="415.0" y="223.0" width="97" height="8" rx="0 " ry="0" fill="#1c94c8" opacity="{{ calendar_slot_opacity }}" /><title>leonardokr/leonardokr | Add commit calendar image to README | 2026-02-12 13:53</title></g><g><rect x="415.0" y="257.0" width="97" height="8" rx="0 " ry="0" fill="#0da572" opacity="{{ calendar_slot_opacity }}" /><title>leonardokr/leo-git-statistics | fix: fixed radius on commit_calendar | 2026-02-12 17:19</title></g><g><rect x="415.0" y="257.0" width="97" height="8" rx="0 " ry="0" fill="#0da572" opacity="{{ calendar_slot_opacity }}" /><title>leonardokr/leo-git-statistics | Merge branch &apos;main&apos; of https://github.com/leonardokr/leo-git-statistics | 2026-02-12 17:19</title></g><g><rect x="415.0" y="277.0" width="97" height="8" rx="0 " ry="0" fill="#0da572" opacity="{{ calendar_slot_opacity }}" /><title>leonardokr/leo-git-statistics | fix: change time bucket minutes to 2 | 2026-02-12 19:21</title></g><g><rect x="415.0" y="277.0" width="97" height="8" rx="0 " ry="0" fill="#0da572" opacity="{{ calendar_slot_opacity }}" /><title>leonardokr/leo-git-statistics | Merge branch &apos;main&apos; of https://github.com/leonardokr/leo-git-statistics | 2026-02-12 19:21</title></g>
  <rect x="110" y="339" width="10" height="10" rx="2" ry="2" fill="#0da572" /><text x="126" y="348" class="legend-label">leonardokr/leo-git-stat...</text><rect x="280" y="339" width="10" height="10" rx="2" ry="2" fill="#1c94c8" /><text x="296" y="348" class="legend-label">leonardokr/leonardokr</text>
</svg>
