<svg width="495" height="195" viewBox="0 0 495 195" xmlns="http://www.w3.org/2000/svg">
<defs>
  <linearGradient id="puzzle-gradient" x1="0%" y1="0%" x2="100%" y2="100%">
    <stop offset="0%" style="stop-color:#58a6ff;stop-opacity:1" />
    <stop offset="100%" style="stop-color:#a371f7;stop-opacity:1" />
  </linearGradient>
  <clipPath id="card-rounded">
    <rect x="0" y="0" width="495" height="195" rx="6" ry="6"/>
  </clipPath>
  <clipPath id="treemap-clip">
    <rect x="0" y="0" width="455" height="135" rx="4" ry="4"/>
  </clipPath>
</defs>

<style>
  @keyframes fadeInUp {
    from { opacity: 0; transform: translateY(8px); }
    to { opacity: 1; transform: translateY(0); }
  }
  @keyframes scaleIn {
    from { opacity: 0; transform: scale(0.95); }
    to { opacity: 1; transform: scale(1); }
  }
  .animate-fade { animation: fadeInUp 0.6s ease forwards; opacity: 0; }
  .puzzle-rect { animation: scaleIn 0.5s ease forwards; opacity: 0; }
  .delay-1 { animation-delay: 0.1s; }
  .delay-2 { animation-delay: 0.2s; }
  .delay-3 { animation-delay: 0.3s; }
  .delay-4 { animation-delay: 0.4s; }
  .delay-5 { animation-delay: 0.5s; }
  .delay-6 { animation-delay: 0.6s; }
  .delay-7 { animation-delay: 0.7s; }
  .delay-8 { animation-delay: 0.8s; }
  .puzzle-text {
    font-family: 'Segoe UI', Ubuntu, 'Helvetica Neue', Sans-Serif;
    font-weight: 600;
    font-size: 12px;
    fill: #FFFFFF;
    pointer-events: none;
  }
  .puzzle-percent {
    font-family: 'Segoe UI', Ubuntu, 'Helvetica Neue', Sans-Serif;
    font-weight: 400;
    font-size: 10px;
    fill: #FFFFFF;
    opacity: 0.85;
    pointer-events: none;
  }
</style>

<rect clip-path="url(#card-rounded)" width="100%" height="100%" fill="#0d1117" stroke="#30363d" stroke-width="1"/>

<rect x="0" y="0" width="6" height="195" fill="url(#puzzle-gradient)" clip-path="url(#card-rounded)"/>

<g transform="translate(25, 32)">
  <g class="animate-fade delay-1">
    <svg x="0" y="-14" width="16" height="16" viewBox="0 0 16 16" fill="#8b949e">
      <path d="M1 2.5A1.5 1.5 0 0 1 2.5 1h3A1.5 1.5 0 0 1 7 2.5v3A1.5 1.5 0 0 1 5.5 7h-3A1.5 1.5 0 0 1 1 5.5v-3zm8 0A1.5 1.5 0 0 1 10.5 1h3A1.5 1.5 0 0 1 15 2.5v3A1.5 1.5 0 0 1 13.5 7h-3A1.5 1.5 0 0 1 9 5.5v-3zm-8 8A1.5 1.5 0 0 1 2.5 9h3A1.5 1.5 0 0 1 7 10.5v3A1.5 1.5 0 0 1 5.5 15h-3A1.5 1.5 0 0 1 1 13.5v-3zm8 0A1.5 1.5 0 0 1 10.5 9h3a1.5 1.5 0 0 1 1.5 1.5v3a1.5 1.5 0 0 1-1.5 1.5h-3A1.5 1.5 0 0 1 9 13.5v-3z"/>
    </svg>
    <text x="22" font-family="'Segoe UI', Ubuntu, 'Helvetica Neue', Sans-Serif" font-weight="600" font-size="16" fill="#58a6ff">Top Languages</text>
  </g>
</g>

<g transform="translate(20, 50)">
    <g class="animate-fade delay-2">
    <g clip-path="url(#treemap-clip)">
      <rect class="puzzle-rect delay-1" x="1.00" y="1.00" width="318.19" height="56.12" rx="4.0" fill="#16cece"/>
<text class="puzzle-text" x="160.09" y="27.06" text-anchor="middle" dominant-baseline="middle">Python</text>
<text class="puzzle-percent" x="160.09" y="39.06" text-anchor="middle" dominant-baseline="middle">45.0%</text>
<rect class="puzzle-rect delay-2" x="1.00" y="59.12" width="178.43" height="74.88" rx="4.0" fill="#579fe9"/>
<text class="puzzle-text" x="90.21" y="94.56" text-anchor="middle" dominant-baseline="middle">TypeScript</text>
<text class="puzzle-percent" x="90.21" y="106.56" text-anchor="middle" dominant-baseline="middle">25.0%</text>
<rect class="puzzle-rect delay-3" x="181.43" y="59.12" width="137.76" height="74.88" rx="4.0" fill="#2622df"/>
<text class="puzzle-text" x="250.31" y="94.56" text-anchor="middle" dominant-baseline="middle">JavaScript</text>
<text class="puzzle-percent" x="250.31" y="106.56" text-anchor="middle" dominant-baseline="middle">15.0%</text>
<rect class="puzzle-rect delay-4" x="321.19" y="1.00" width="132.81" height="56.20" rx="4.0" fill="#4ac4e2"/>
<text class="puzzle-text" x="387.59" y="27.10" text-anchor="middle" dominant-baseline="middle">Rust</text>
<text class="puzzle-percent" x="387.59" y="39.10" text-anchor="middle" dominant-baseline="middle">8.0%</text>
<rect class="puzzle-rect delay-5" x="321.19" y="59.20" width="70.25" height="74.80" rx="4.0" fill="#416fdd"/>
<text class="puzzle-text" x="356.31" y="94.60" text-anchor="middle" dominant-baseline="middle">Go</text>
<text class="puzzle-percent" x="356.31" y="106.60" text-anchor="middle" dominant-baseline="middle">4.0%</text>
<rect class="puzzle-rect delay-6" x="393.43" y="59.20" width="60.57" height="74.80" rx="4.0" fill="#5f3ed9"/>
<text class="puzzle-text" x="423.72" y="94.60" text-anchor="middle" dominant-baseline="middle">Shell</text>
<text class="puzzle-percent" x="423.72" y="106.60" text-anchor="middle" dominant-baseline="middle">3.0%</text>

    </g>
  </g>
</g>

</svg>
