<svg width="900" height="402" viewBox="0 0 900 402" xmlns="http://www.w3.org/2000/svg">
  <defs>
    <linearGradient id="history-gradient" x1="0%" y1="0%" x2="100%" y2="100%">
      <stop offset="0%" style="stop-color:#7aa2f7;stop-opacity:1" />
      <stop offset="100%" style="stop-color:#bb9af7;stop-opacity:1" />
    </linearGradient>
    <clipPath id="history-rounded">
      <rect x="0" y="0" width="900" height="402" rx="8" ry="8" />
    </clipPath>
  </defs>
  <style>
    .title {
      font-family: 'Segoe UI', Ubuntu, 'Helvetica Neue', sans-serif;
      font-size: 22px;
      font-weight: 700;
      fill: #7aa2f7;
    }
    .subtitle {
      font-family: 'Segoe UI', Ubuntu, 'Helvetica Neue', sans-serif;
      font-size: 12px;
      font-weight: 500;
      fill: #565f89;
    }
    .axis-label {
      font-family: 'Segoe UI', Ubuntu, 'Helvetica Neue', sans-serif;
      font-size: 10px;
      fill: #565f89;
    }
    .grid-line {
      stroke: #292e42;
      stroke-width: 1;
      opacity: 0.3;
    }
    .legend-label {
      font-family: 'Segoe UI', Ubuntu, 'Helvetica Neue', sans-serif;
      font-size: 11px;
      fill: #a9b1d6;
      dominant-baseline: middle;
    }
  </style>
  <rect clip-path="url(#history-rounded)" width="100%" height="100%" fill="#1a1b26" stroke="#292e42" stroke-width="1" />
  <rect x="0" y="396" width="900" height="6" fill="url(#history-gradient)" clip-path="url(#history-rounded)" />
  <text x="24" y="34" class="title">User&apos;s Stats History</text>
  <text x="24" y="54" class="subtitle">Period: 2026-02-08 to 2026-02-17</text>
  <text x="72" y="320.0" text-anchor="end" dominant-baseline="central" class="axis-label">0</text><text x="72" y="270.0" text-anchor="end" dominant-baseline="central" class="axis-label">600</text><text x="72" y="220.0" text-anchor="end" dominant-baseline="central" class="axis-label">1.2k</text><text x="72" y="170.0" text-anchor="end" dominant-baseline="central" class="axis-label">1.8k</text><text x="72" y="120.0" text-anchor="end" dominant-baseline="central" class="axis-label">2.4k</text><text x="72" y="70.0" text-anchor="end" dominant-baseline="central" class="axis-label">3.0k</text>
  <text x="80.0" y="336" text-anchor="middle" class="axis-label">02-08</text><text x="164.4" y="336" text-anchor="middle" class="axis-label">02-09</text><text x="248.9" y="336" text-anchor="middle" class="axis-label">02-10</text><text x="333.3" y="336" text-anchor="middle" class="axis-label">02-11</text><text x="417.8" y="336" text-anchor="middle" class="axis-label">02-12</text><text x="502.2" y="336" text-anchor="middle" class="axis-label">02-13</text><text x="586.7" y="336" text-anchor="middle" class="axis-label">02-14</text><text x="671.1" y="336" text-anchor="middle" class="axis-label">02-15</text><text x="755.6" y="336" text-anchor="middle" class="axis-label">02-16</text><text x="840.0" y="336" text-anchor="middle" class="axis-label">02-17</text>
  <line x1="80" y1="320.0" x2="840" y2="320.0" class="grid-line" /><line x1="80" y1="270.0" x2="840" y2="270.0" class="grid-line" /><line x1="80" y1="220.0" x2="840" y2="220.0" class="grid-line" /><line x1="80" y1="170.0" x2="840" y2="170.0" class="grid-line" /><line x1="80" y1="120.0" x2="840" y2="120.0" class="grid-line" /><line x1="80" y1="70.0" x2="840" y2="70.0" class="grid-line" />
  <polyline points="80.0,276.7 164.4,276.2 248.9,275.8 333.3,275.2 417.8,274.8 502.2,274.3 586.7,273.9 671.1,273.5 755.6,273.2 840.0,272.8" fill="none" stroke="#30e8ba" stroke-width="2.5" stroke-linecap="round" stroke-linejoin="round" /><circle cx="80.0" cy="276.7" r="4" fill="#30e8ba" /><circle cx="164.4" cy="276.2" r="4" fill="#30e8ba" /><circle cx="248.9" cy="275.8" r="4" fill="#30e8ba" /><circle cx="333.3" cy="275.2" r="4" fill="#30e8ba" /><circle cx="417.8" cy="274.8" r="4" fill="#30e8ba" /><circle cx="502.2" cy="274.3" r="4" fill="#30e8ba" /><circle cx="586.7" cy="273.9" r="4" fill="#30e8ba" /><circle cx="671.1" cy="273.5" r="4" fill="#30e8ba" /><circle cx="755.6" cy="273.2" r="4" fill="#30e8ba" /><circle cx="840.0" cy="272.8" r="4" fill="#30e8ba" /><polyline points="80.0,309.2 164.4,309.1 248.9,308.9 333.3,308.8 417.8,308.7 502.2,308.6 586.7,308.5 671.1,308.4 755.6,308.3 840.0,308.2" fill="none" stroke="#86b9ef" stroke-width="2.5" stroke-linecap="round" stroke-linejoin="round" /><circle cx="80.0" cy="309.2" r="4" fill="#86b9ef" /><circle cx="164.4" cy="309.1" r="4" fill="#86b9ef" /><circle cx="248.9" cy="308.9" r="4" fill="#86b9ef" /><circle cx="333.3" cy="308.8" r="4" fill="#86b9ef" /><circle cx="417.8" cy="308.7" r="4" fill="#86b9ef" /><circle cx="502.2" cy="308.6" r="4" fill="#86b9ef" /><circle cx="586.7" cy="308.5" r="4" fill="#86b9ef" /><circle cx="671.1" cy="308.4" r="4" fill="#86b9ef" /><circle cx="755.6" cy="308.3" r="4" fill="#86b9ef" /><circle cx="840.0" cy="308.2" r="4" fill="#86b9ef" /><polyline points="80.0,313.2 164.4,313.1 248.9,313.1 333.3,313.0 417.8,312.9 502.2,312.9 586.7,312.8 671.1,312.8 755.6,312.8 840.0,312.8" fill="none" stroke="#754ae6" stroke-width="2.5" stroke-linecap="round" stroke-linejoin="round" /><circle cx="80.0" cy="313.2" r="4" fill="#754ae6" /><circle cx="164.4" cy="313.1" r="4" fill="#754ae6" /><circle cx="248.9" cy="313.1" r="4" fill="#754ae6" /><circle cx="333.3" cy="313.0" r="4" fill="#754ae6" /><circle cx="417.8" cy="312.9" r="4" fill="#754ae6" /><circle cx="502.2" cy="312.9" r="4" fill="#754ae6" /><circle cx="586.7" cy="312.8" r="4" fill="#754ae6" /><circle cx="671.1" cy="312.8" r="4" fill="#754ae6" /><circle cx="755.6" cy="312.8" r="4" fill="#754ae6" /><circle cx="840.0" cy="312.8" r="4" fill="#754ae6" /><polyline points="80.0,145.0 164.4,142.5 248.9,139.2 333.3,136.7 417.8,133.3 502.2,131.2 586.7,129.2 671.1,127.5 755.6,125.8 840.0,124.6" fill="none" stroke="#7ae6ea" stroke-width="2.5" stroke-linecap="round" stroke-linejoin="round" /><circle cx="80.0" cy="145.0" r="4" fill="#7ae6ea" /><circle cx="164.4" cy="142.5" r="4" fill="#7ae6ea" /><circle cx="248.9" cy="139.2" r="4" fill="#7ae6ea" /><circle cx="333.3" cy="136.7" r="4" fill="#7ae6ea" /><circle cx="417.8" cy="133.3" r="4" fill="#7ae6ea" /><circle cx="502.2" cy="131.2" r="4" fill="#7ae6ea" /><circle cx="586.7" cy="129.2" r="4" fill="#7ae6ea" /><circle cx="671.1" cy="127.5" r="4" fill="#7ae6ea" /><circle cx="755.6" cy="125.8" r="4" fill="#7ae6ea" /><circle cx="840.0" cy="124.6" r="4" fill="#7ae6ea" /><polyline points="80.0,314.0 164.4,313.8 248.9,313.7 333.3,313.5 417.8,313.3 502.2,313.2 586.7,313.0 671.1,312.9 755.6,312.8 840.0,312.6" fill="none" stroke="#627ce5" stroke-width="2.5" stroke-linecap="round" stroke-linejoin="round" /><circle cx="80.0" cy="314.0" r="4" fill="#627ce5" /><circle cx="164.4" cy="313.8" r="4" fill="#627ce5" /><circle cx="248.9" cy="313.7" r="4" fill="#627ce5" /><circle cx="333.3" cy="313.5" r="4" fill="#627ce5" /><circle cx="417.8" cy="313.3" r="4" fill="#627ce5" /><circle cx="502.2" cy="313.2" r="4" fill="#627ce5" /><circle cx="586.7" cy="313.0" r="4" fill="#627ce5" /><circle cx="671.1" cy="312.9" r="4" fill="#627ce5" /><circle cx="755.6" cy="312.8" r="4" fill="#627ce5" /><circle cx="840.0" cy="312.6" r="4" fill="#627ce5" /><polyline points="80.0,317.1 164.4,317.0 248.9,316.9 333.3,316.8 417.8,316.8 502.2,316.7 586.7,316.6 671.1,316.4 755.6,316.3 840.0,316.2" fill="none" stroke="#b26ee5" stroke-width="2.5" stroke-linecap="round" stroke-linejoin="round" /><circle cx="80.0" cy="317.1" r="4" fill="#b26ee5" /><circle cx="164.4" cy="317.0" r="4" fill="#b26ee5" /><circle cx="248.9" cy="316.9" r="4" fill="#b26ee5" /><circle cx="333.3" cy="316.8" r="4" fill="#b26ee5" /><circle cx="417.8" cy="316.8" r="4" fill="#b26ee5" /><circle cx="502.2" cy="316.7" r="4" fill="#b26ee5" /><circle cx="586.7" cy="316.6" r="4" fill="#b26ee5" /><circle cx="671.1" cy="316.4" r="4" fill="#b26ee5" /><circle cx="755.6" cy="316.3" r="4" fill="#b26ee5" /><circle cx="840.0" cy="316.2" r="4" fill="#b26ee5" /><polyline points="80.0,318.5 164.4,318.5 248.9,318.4 333.3,318.4 417.8,318.3 502.2,318.2 586.7,318.2 671.1,318.2 755.6,318.2 840.0,318.1" fill="none" stroke="#7ac1e5" stroke-width="2.5" stroke-linecap="round" stroke-linejoin="round" /><circle cx="80.0" cy="318.5" r="4" fill="#7ac1e5" /><circle cx="164.4" cy="318.5" r="4" fill="#7ac1e5" /><circle cx="248.9" cy="318.4" r="4" fill="#7ac1e5" /><circle cx="333.3" cy="318.4" r="4" fill="#7ac1e5" /><circle cx="417.8" cy="318.3" r="4" fill="#7ac1e5" /><circle cx="502.2" cy="318.2" r="4" fill="#7ac1e5" /><circle cx="586.7" cy="318.2" r="4" fill="#7ac1e5" /><circle cx="671.1" cy="318.2" r="4" fill="#7ac1e5" /><circle cx="755.6" cy="318.2" r="4" fill="#7ac1e5" /><circle cx="840.0" cy="318.1" r="4" fill="#7ac1e5" />
  <rect x="80" y="339" width="10" height="10" rx="2" ry="2" fill="#30e8ba" /><text x="96" y="348" class="legend-label">Stars</text><rect x="250" y="339" width="10" height="10" rx="2" ry="2" fill="#86b9ef" /><text x="266" y="348" class="legend-label">Followers</text><rect x="420" y="339" width="10" height="10" rx="2" ry="2" fill="#754ae6" /><text x="436" y="348" class="legend-label">Following</text><rect x="590" y="339" width="10" height="10" rx="2" ry="2" fill="#7ae6ea" /><text x="606" y="348" class="legend-label">Contributions</text><rect x="80" y="357" width="10" height="10" rx="2" ry="2" fill="#627ce5" /><text x="96" y="366" class="legend-label">Forks</text><rect x="250" y="357" width="10" height="10" rx="2" ry="2" fill="#b26ee5" /><text x="266" y="366" class="legend-label">Pull Requests</text><rect x="420" y="357" width="10" height="10" rx="2" ry="2" fill="#7ac1e5" /><text x="436" y="366" class="legend-label">Issues</text>
</svg>
